<svg width="1920" height="416" viewBox="0 0 1920 416" fill="none" xmlns="http://www.w3.org/2000/svg">
<rect width="1920" height="416" rx="16" fill="#EBEBEB"/>
<g opacity="0.4">
<mask id="mask0_257_3350" style="mask-type:alpha" maskUnits="userSpaceOnUse" x="126" y="58" width="217" height="218">
<circle cx="129.24" cy="60.2397" r="2.23973" fill="#D9D9D9"/>
<circle cx="129.24" cy="79.6499" r="2.23973" fill="#D9D9D9"/>
<circle cx="129.24" cy="99.062" r="2.23973" fill="#D9D9D9"/>
<circle cx="129.24" cy="118.472" r="2.23973" fill="#D9D9D9"/>
<circle cx="129.24" cy="137.884" r="2.23973" fill="#D9D9D9"/>
<circle cx="129.239" cy="157.294" r="2.23973" fill="#D9D9D9"/>
<circle cx="129.24" cy="176.705" r="2.23973" fill="#D9D9D9"/>
<circle cx="129.24" cy="196.117" r="2.23973" fill="#D9D9D9"/>
<circle cx="129.24" cy="215.527" r="2.23973" fill="#D9D9D9"/>
<circle cx="129.24" cy="234.939" r="2.23973" fill="#D9D9D9"/>
<circle cx="129.24" cy="254.349" r="2.23973" fill="#D9D9D9"/>
<circle cx="129.24" cy="273.759" r="2.23973" fill="#D9D9D9"/>
<circle cx="152.632" cy="60.2397" r="2.23973" fill="#D9D9D9"/>
<circle cx="152.632" cy="79.6499" r="2.23973" fill="#D9D9D9"/>
<circle cx="152.632" cy="99.062" r="2.23973" fill="#D9D9D9"/>
<circle cx="152.632" cy="118.472" r="2.23973" fill="#D9D9D9"/>
<circle cx="152.632" cy="137.884" r="2.23973" fill="#D9D9D9"/>
<circle cx="152.632" cy="157.294" r="2.23973" fill="#D9D9D9"/>
<circle cx="152.632" cy="176.705" r="2.23973" fill="#D9D9D9"/>
<circle cx="152.632" cy="196.117" r="2.23973" fill="#D9D9D9"/>
<circle cx="152.632" cy="215.527" r="2.23973" fill="#D9D9D9"/>
<circle cx="152.632" cy="234.939" r="2.23973" fill="#D9D9D9"/>
<circle cx="152.632" cy="254.349" r="2.23973" fill="#D9D9D9"/>
<circle cx="152.632" cy="273.759" r="2.23973" fill="#D9D9D9"/>
<circle cx="176.025" cy="60.2397" r="2.23973" fill="#D9D9D9"/>
<circle cx="176.025" cy="79.6499" r="2.23973" fill="#D9D9D9"/>
<circle cx="176.025" cy="99.062" r="2.23973" fill="#D9D9D9"/>
<circle cx="176.025" cy="118.472" r="2.23973" fill="#D9D9D9"/>
<circle cx="176.025" cy="137.884" r="2.23973" fill="#D9D9D9"/>
<circle cx="176.025" cy="157.294" r="2.23973" fill="#D9D9D9"/>
<circle cx="176.025" cy="176.705" r="2.23973" fill="#D9D9D9"/>
<circle cx="176.025" cy="196.117" r="2.23973" fill="#D9D9D9"/>
<circle cx="176.025" cy="215.527" r="2.23973" fill="#D9D9D9"/>
<circle cx="176.025" cy="234.939" r="2.23973" fill="#D9D9D9"/>
<circle cx="176.025" cy="254.349" r="2.23973" fill="#D9D9D9"/>
<circle cx="176.025" cy="273.759" r="2.23973" fill="#D9D9D9"/>
<circle cx="199.418" cy="60.2397" r="2.23973" fill="#D9D9D9"/>
<circle cx="199.417" cy="79.6499" r="2.23973" fill="#D9D9D9"/>
<circle cx="199.417" cy="99.062" r="2.23973" fill="#D9D9D9"/>
<circle cx="199.417" cy="118.472" r="2.23973" fill="#D9D9D9"/>
<circle cx="199.417" cy="137.884" r="2.23973" fill="#D9D9D9"/>
<circle cx="199.418" cy="157.294" r="2.23973" fill="#D9D9D9"/>
<circle cx="199.417" cy="176.705" r="2.23973" fill="#D9D9D9"/>
<circle cx="199.417" cy="196.117" r="2.23973" fill="#D9D9D9"/>
<circle cx="199.417" cy="215.527" r="2.23973" fill="#D9D9D9"/>
<circle cx="199.417" cy="234.939" r="2.23973" fill="#D9D9D9"/>
<circle cx="199.417" cy="254.349" r="2.23973" fill="#D9D9D9"/>
<circle cx="199.417" cy="273.759" r="2.23973" fill="#D9D9D9"/>
<circle cx="222.81" cy="60.2397" r="2.23973" fill="#D9D9D9"/>
<circle cx="222.81" cy="79.6499" r="2.23973" fill="#D9D9D9"/>
<circle cx="222.81" cy="99.062" r="2.23973" fill="#D9D9D9"/>
<circle cx="222.81" cy="118.472" r="2.23973" fill="#D9D9D9"/>
<circle cx="222.81" cy="137.884" r="2.23973" fill="#D9D9D9"/>
<circle cx="222.81" cy="157.294" r="2.23973" fill="#D9D9D9"/>
<circle cx="222.81" cy="176.705" r="2.23973" fill="#D9D9D9"/>
<circle cx="222.81" cy="196.117" r="2.23973" fill="#D9D9D9"/>
<circle cx="222.81" cy="215.527" r="2.23973" fill="#D9D9D9"/>
<circle cx="222.81" cy="234.939" r="2.23973" fill="#D9D9D9"/>
<circle cx="222.81" cy="254.349" r="2.23973" fill="#D9D9D9"/>
<circle cx="222.81" cy="273.759" r="2.23973" fill="#D9D9D9"/>
<circle cx="246.204" cy="60.2397" r="2.23973" fill="#D9D9D9"/>
<circle cx="246.204" cy="79.6499" r="2.23973" fill="#D9D9D9"/>
<circle cx="246.204" cy="99.062" r="2.23973" fill="#D9D9D9"/>
<circle cx="246.204" cy="118.472" r="2.23973" fill="#D9D9D9"/>
<circle cx="246.204" cy="137.884" r="2.23973" fill="#D9D9D9"/>
<circle cx="246.204" cy="157.294" r="2.23973" fill="#D9D9D9"/>
<circle cx="246.204" cy="176.705" r="2.23973" fill="#D9D9D9"/>
<circle cx="246.204" cy="196.117" r="2.23973" fill="#D9D9D9"/>
<circle cx="246.204" cy="215.527" r="2.23973" fill="#D9D9D9"/>
<circle cx="246.204" cy="234.939" r="2.23973" fill="#D9D9D9"/>
<circle cx="246.204" cy="254.349" r="2.23973" fill="#D9D9D9"/>
<circle cx="246.204" cy="273.759" r="2.23973" fill="#D9D9D9"/>
<circle cx="269.596" cy="60.2397" r="2.23973" fill="#D9D9D9"/>
<circle cx="269.596" cy="79.6499" r="2.23973" fill="#D9D9D9"/>
<circle cx="269.596" cy="99.062" r="2.23973" fill="#D9D9D9"/>
<circle cx="269.596" cy="118.472" r="2.23973" fill="#D9D9D9"/>
<circle cx="269.596" cy="137.884" r="2.23973" fill="#D9D9D9"/>
<circle cx="269.596" cy="157.294" r="2.23973" fill="#D9D9D9"/>
<circle cx="269.596" cy="176.705" r="2.23973" fill="#D9D9D9"/>
<circle cx="269.596" cy="196.117" r="2.23973" fill="#D9D9D9"/>
<circle cx="269.596" cy="215.527" r="2.23973" fill="#D9D9D9"/>
<circle cx="269.596" cy="234.939" r="2.23973" fill="#D9D9D9"/>
<circle cx="269.596" cy="254.349" r="2.23973" fill="#D9D9D9"/>
<circle cx="269.596" cy="273.759" r="2.23973" fill="#D9D9D9"/>
<circle cx="292.989" cy="60.2397" r="2.23973" fill="#D9D9D9"/>
<circle cx="292.989" cy="79.6499" r="2.23973" fill="#D9D9D9"/>
<circle cx="292.989" cy="99.062" r="2.23973" fill="#D9D9D9"/>
<circle cx="292.989" cy="118.472" r="2.23973" fill="#D9D9D9"/>
<circle cx="292.989" cy="137.884" r="2.23973" fill="#D9D9D9"/>
<circle cx="292.989" cy="157.294" r="2.23973" fill="#D9D9D9"/>
<circle cx="292.989" cy="176.705" r="2.23973" fill="#D9D9D9"/>
<circle cx="292.989" cy="196.117" r="2.23973" fill="#D9D9D9"/>
<circle cx="292.989" cy="215.527" r="2.23973" fill="#D9D9D9"/>
<circle cx="292.989" cy="234.939" r="2.23973" fill="#D9D9D9"/>
<circle cx="292.989" cy="254.349" r="2.23973" fill="#D9D9D9"/>
<circle cx="292.989" cy="273.759" r="2.23973" fill="#D9D9D9"/>
<circle cx="316.381" cy="60.2397" r="2.23973" fill="#D9D9D9"/>
<circle cx="316.381" cy="79.6499" r="2.23973" fill="#D9D9D9"/>
<circle cx="316.381" cy="99.062" r="2.23973" fill="#D9D9D9"/>
<circle cx="316.381" cy="118.472" r="2.23973" fill="#D9D9D9"/>
<circle cx="316.381" cy="137.884" r="2.23973" fill="#D9D9D9"/>
<circle cx="316.381" cy="157.294" r="2.23973" fill="#D9D9D9"/>
<circle cx="316.381" cy="176.705" r="2.23973" fill="#D9D9D9"/>
<circle cx="316.381" cy="196.117" r="2.23973" fill="#D9D9D9"/>
<circle cx="316.381" cy="215.527" r="2.23973" fill="#D9D9D9"/>
<circle cx="316.381" cy="234.939" r="2.23973" fill="#D9D9D9"/>
<circle cx="316.381" cy="254.349" r="2.23973" fill="#D9D9D9"/>
<circle cx="316.381" cy="273.759" r="2.23973" fill="#D9D9D9"/>
<circle cx="339.774" cy="60.2397" r="2.23973" fill="#D9D9D9"/>
<circle cx="339.774" cy="79.6499" r="2.23973" fill="#D9D9D9"/>
<circle cx="339.774" cy="99.062" r="2.23973" fill="#D9D9D9"/>
<circle cx="339.774" cy="118.472" r="2.23973" fill="#D9D9D9"/>
<circle cx="339.774" cy="137.884" r="2.23973" fill="#D9D9D9"/>
<circle cx="339.774" cy="157.294" r="2.23973" fill="#D9D9D9"/>
<circle cx="339.774" cy="176.705" r="2.23973" fill="#D9D9D9"/>
<circle cx="339.774" cy="196.117" r="2.23973" fill="#D9D9D9"/>
<circle cx="339.774" cy="215.527" r="2.23973" fill="#D9D9D9"/>
<circle cx="339.774" cy="234.939" r="2.23973" fill="#D9D9D9"/>
<circle cx="339.774" cy="254.349" r="2.23973" fill="#D9D9D9"/>
<circle cx="339.774" cy="273.759" r="2.23973" fill="#D9D9D9"/>
</mask>
<g mask="url(#mask0_257_3350)">
<circle cx="234.507" cy="167.001" r="108.005" fill="#979797"/>
</g>
</g>
</svg>
