<svg width="18" height="18" viewBox="0 0 18 18" fill="none" xmlns="http://www.w3.org/2000/svg">
<path d="M15 7.2C15 4.2 13.8 3 10.8 3H7.2C4.2 3 3 4.2 3 7.2V10.8C3 13.8 4.2 15 7.2 15" stroke="#999999" stroke-width="1.5" stroke-linecap="round" stroke-linejoin="round"/>
<path d="M12.2625 6C11.85 5.475 11.16 5.25 10.125 5.25H7.875C6 5.25 5.25 6 5.25 7.875V10.125C5.25 11.16 5.475 11.85 5.9925 12.2625" stroke="#999999" stroke-width="1.5" stroke-linecap="round" stroke-linejoin="round"/>
<path d="M6.00732 3V1.5" stroke="#999999" stroke-width="1.125" stroke-linecap="round" stroke-linejoin="round"/>
<path d="M9 3V1.5" stroke="#999999" stroke-width="1.125" stroke-linecap="round" stroke-linejoin="round"/>
<path d="M12 3V1.5" stroke="#999999" stroke-width="1.125" stroke-linecap="round" stroke-linejoin="round"/>
<path d="M15 6H16.5" stroke="#999999" stroke-width="1.125" stroke-linecap="round" stroke-linejoin="round"/>
<path d="M6.00732 15V16.5" stroke="#999999" stroke-width="1.125" stroke-linecap="round" stroke-linejoin="round"/>
<path d="M1.5 6H3" stroke="#999999" stroke-width="1.125" stroke-linecap="round" stroke-linejoin="round"/>
<path d="M1.5 9H3" stroke="#999999" stroke-width="1.125" stroke-linecap="round" stroke-linejoin="round"/>
<path d="M1.5 12H3" stroke="#999999" stroke-width="1.125" stroke-linecap="round" stroke-linejoin="round"/>
<path d="M12.5323 13.9416C13.1909 13.9416 13.7248 13.4077 13.7248 12.7491C13.7248 12.0905 13.1909 11.5566 12.5323 11.5566C11.8737 11.5566 11.3398 12.0905 11.3398 12.7491C11.3398 13.4077 11.8737 13.9416 12.5323 13.9416Z" stroke="#999999" stroke-width="1.125" stroke-miterlimit="10" stroke-linecap="round" stroke-linejoin="round"/>
<path d="M8.55762 13.0942V12.3967C8.55762 11.9842 8.89512 11.6467 9.30762 11.6467C10.0276 11.6467 10.3201 11.1367 9.96012 10.5142C9.75012 10.1542 9.87762 9.68917 10.2376 9.48667L10.9201 9.08917C11.2351 8.90167 11.6401 9.01417 11.8276 9.32917L11.8726 9.40417C12.2326 10.0267 12.8176 10.0267 13.1776 9.40417L13.2226 9.32917C13.4101 9.01417 13.8151 8.90917 14.1301 9.08917L14.8126 9.48667C15.1726 9.69667 15.3001 10.1542 15.0901 10.5142C14.7301 11.1367 15.0226 11.6467 15.7426 11.6467C16.1551 11.6467 16.4926 11.9842 16.4926 12.3967V13.0942C16.4926 13.5067 16.1551 13.8442 15.7426 13.8442C15.0226 13.8442 14.7301 14.3542 15.0901 14.9767C15.3001 15.3367 15.1726 15.8017 14.8126 16.0042L14.1301 16.4017C13.8151 16.5892 13.4101 16.4767 13.2226 16.1617L13.1776 16.0867C12.8176 15.4642 12.2326 15.4642 11.8726 16.0867L11.8276 16.1617C11.6401 16.4767 11.2351 16.5817 10.9201 16.4017L10.2376 16.0042C9.87762 15.7942 9.75012 15.3367 9.96012 14.9767C10.3201 14.3542 10.0276 13.8442 9.30762 13.8442C8.89512 13.8517 8.55762 13.5142 8.55762 13.0942Z" stroke="#999999" stroke-width="1.125" stroke-miterlimit="10" stroke-linecap="round" stroke-linejoin="round"/>
</svg>
