<svg width="16" height="17" viewBox="0 0 16 17" fill="none" xmlns="http://www.w3.org/2000/svg">
<path d="M2.58317 3.58816V3.41582L3.19958 3.25065H3.41666V6.16732V6.58398H3.83333H4.24984V6.75065H2.4165V6.58398H2.83329H3.24998L3.24996 6.1673L3.24985 3.95251L3.24982 3.4095L2.72533 3.55007L2.58317 3.58816ZM3.54375 13.2507H4.24984V13.4173H2.41639L2.4163 13.2421L3.96188 11.4643L3.64764 11.1907L3.96209 11.464L3.9619 11.4642C4.08921 11.318 4.1665 11.1263 4.1665 10.9173C4.1665 10.4571 3.7934 10.084 3.33317 10.084C2.96011 10.084 2.64429 10.3291 2.53803 10.6673H2.36468C2.47569 10.236 2.86721 9.91732 3.33317 9.91732C3.88546 9.91732 4.33317 10.365 4.33317 10.9173C4.33317 11.1437 4.25826 11.3518 4.13168 11.5194L3.22888 12.5611L2.63126 13.2507H3.54375ZM7.08317 3.58398H13.5832V4.08398H7.08317V3.58398ZM7.08317 8.25065H13.5832V8.75065H7.08317V8.25065ZM7.08317 12.9173H13.5832V13.4173H7.08317V12.9173Z" fill="#292D32" stroke="#5A5A5A" stroke-width="0.833333"/>
</svg>
