<svg width="18" height="18" viewBox="0 0 18 18" fill="none" xmlns="http://www.w3.org/2000/svg">
<path d="M15 10.5C15.8284 10.5 16.5 9.82843 16.5 9C16.5 8.17157 15.8284 7.5 15 7.5C14.1716 7.5 13.5 8.17157 13.5 9C13.5 9.82843 14.1716 10.5 15 10.5Z" stroke="#999999" stroke-width="1.5" stroke-linecap="round" stroke-linejoin="round"/>
<path d="M15 4.5C15.8284 4.5 16.5 3.82843 16.5 3C16.5 2.17157 15.8284 1.5 15 1.5C14.1716 1.5 13.5 2.17157 13.5 3C13.5 3.82843 14.1716 4.5 15 4.5Z" stroke="#999999" stroke-width="1.5" stroke-linecap="round" stroke-linejoin="round"/>
<path d="M15 16.5C15.8284 16.5 16.5 15.8284 16.5 15C16.5 14.1716 15.8284 13.5 15 13.5C14.1716 13.5 13.5 14.1716 13.5 15C13.5 15.8284 14.1716 16.5 15 16.5Z" stroke="#999999" stroke-width="1.125" stroke-linecap="round" stroke-linejoin="round"/>
<path d="M3 10.5C3.82843 10.5 4.5 9.82843 4.5 9C4.5 8.17157 3.82843 7.5 3 7.5C2.17157 7.5 1.5 8.17157 1.5 9C1.5 9.82843 2.17157 10.5 3 10.5Z" stroke="#999999" stroke-width="1.125" stroke-linecap="round" stroke-linejoin="round"/>
<path d="M4.5 9H13.5" stroke="#999999" stroke-width="1.125" stroke-linecap="round" stroke-linejoin="round"/>
<path d="M13.5 3H10.5C9 3 8.25 3.75 8.25 5.25V12.75C8.25 14.25 9 15 10.5 15H13.5" stroke="#999999" stroke-width="1.125" stroke-linecap="round" stroke-linejoin="round"/>
</svg>
