<svg width="20" height="20" viewBox="0 0 20 20" fill="none" xmlns="http://www.w3.org/2000/svg">
<path d="M5.4165 18.3333V12.5" stroke="white" stroke-width="1.5" stroke-miterlimit="10" stroke-linecap="round" stroke-linejoin="round"/>
<path d="M5.4165 4.16602V1.66602" stroke="white" stroke-width="1.5" stroke-miterlimit="10" stroke-linecap="round" stroke-linejoin="round"/>
<path d="M14.5835 18.334V15.834" stroke="white" stroke-width="1.5" stroke-miterlimit="10" stroke-linecap="round" stroke-linejoin="round"/>
<path d="M14.5835 7.49935V1.66602" stroke="white" stroke-width="1.5" stroke-miterlimit="10" stroke-linecap="round" stroke-linejoin="round"/>
<path d="M7.9165 5.83268V10.8327C7.9165 11.7493 7.49984 12.4993 6.24984 12.4993H4.58317C3.33317 12.4993 2.9165 11.7493 2.9165 10.8327V5.83268C2.9165 4.91602 3.33317 4.16602 4.58317 4.16602H6.24984C7.49984 4.16602 7.9165 4.91602 7.9165 5.83268Z" stroke="white" stroke-width="1.5" stroke-miterlimit="10" stroke-linecap="round" stroke-linejoin="round"/>
<path d="M17.0835 9.16667V14.1667C17.0835 15.0833 16.6668 15.8333 15.4168 15.8333H13.7502C12.5002 15.8333 12.0835 15.0833 12.0835 14.1667V9.16667C12.0835 8.25 12.5002 7.5 13.7502 7.5H15.4168C16.6668 7.5 17.0835 8.25 17.0835 9.16667Z" stroke="white" stroke-width="1.5" stroke-miterlimit="10" stroke-linecap="round" stroke-linejoin="round"/>
</svg>
