<svg width="20" height="20" viewBox="0 0 20 20" fill="none" xmlns="http://www.w3.org/2000/svg">
<path fill-rule="evenodd" clip-rule="evenodd" d="M15.8926 15.8909C13.3458 18.438 9.57465 18.9883 6.48852 17.561C6.03293 17.3776 5.65941 17.2294 5.30431 17.2294C4.31524 17.2352 3.08414 18.1942 2.4443 17.5552C1.80447 16.9153 2.76422 15.6832 2.76422 14.6881C2.76422 14.333 2.62185 13.9662 2.43844 13.5097C1.01053 10.424 1.56159 6.65159 4.10839 4.10535C7.3595 0.853042 12.6415 0.853042 15.8926 4.10452C19.1496 7.36185 19.1438 12.6394 15.8926 15.8909Z" stroke="white" stroke-width="1.5" stroke-linecap="round" stroke-linejoin="round"/>
<path d="M13.2825 10.3444H13.29" stroke="white" stroke-width="2" stroke-linecap="round" stroke-linejoin="round"/>
<path d="M9.94173 10.3444H9.94923" stroke="white" stroke-width="2" stroke-linecap="round" stroke-linejoin="round"/>
<path d="M6.60091 10.3444H6.60841" stroke="white" stroke-width="2" stroke-linecap="round" stroke-linejoin="round"/>
</svg>
