<svg width="16" height="17" viewBox="0 0 16 17" fill="none" xmlns="http://www.w3.org/2000/svg">
<path d="M14.6667 6.01398V3.32065C14.6667 2.26065 14.24 1.83398 13.18 1.83398H10.4867C9.42667 1.83398 9 2.26065 9 3.32065V6.01398C9 7.07398 9.42667 7.50065 10.4867 7.50065H13.18C14.24 7.50065 14.6667 7.07398 14.6667 6.01398Z" stroke="#5A5A5A" stroke-width="1.5" stroke-linecap="round" stroke-linejoin="round"/>
<path d="M6.99967 6.18065V3.15398C6.99967 2.21398 6.57301 1.83398 5.51301 1.83398H2.81967C1.75967 1.83398 1.33301 2.21398 1.33301 3.15398V6.17398C1.33301 7.12065 1.75967 7.49398 2.81967 7.49398H5.51301C6.57301 7.50065 6.99967 7.12065 6.99967 6.18065Z" stroke="#5A5A5A" stroke-width="1.5" stroke-linecap="round" stroke-linejoin="round"/>
<path d="M6.99967 13.68V10.9867C6.99967 9.92667 6.57301 9.5 5.51301 9.5H2.81967C1.75967 9.5 1.33301 9.92667 1.33301 10.9867V13.68C1.33301 14.74 1.75967 15.1667 2.81967 15.1667H5.51301C6.57301 15.1667 6.99967 14.74 6.99967 13.68Z" stroke="#5A5A5A" stroke-width="1.5" stroke-linecap="round" stroke-linejoin="round"/>
<path d="M10 10.834H14" stroke="#5A5A5A" stroke-width="1.5" stroke-linecap="round"/>
<path d="M10 13.5H14" stroke="#292D32" stroke-width="1.5" stroke-linecap="round"/>
</svg>
