<svg width="18" height="18" viewBox="0 0 18 18" fill="none" xmlns="http://www.w3.org/2000/svg">
<path fill-rule="evenodd" clip-rule="evenodd" d="M9.0001 0.9375C7.03259 0.9375 5.4376 2.53249 5.4376 4.5C5.4376 6.46751 7.03259 8.0625 9.0001 8.0625C10.9676 8.0625 12.5626 6.46751 12.5626 4.5C12.5626 2.53249 10.9676 0.9375 9.0001 0.9375ZM6.5626 4.5C6.5626 3.15381 7.65391 2.0625 9.0001 2.0625C10.3463 2.0625 11.4376 3.15381 11.4376 4.5C11.4376 5.84619 10.3463 6.9375 9.0001 6.9375C7.65391 6.9375 6.5626 5.84619 6.5626 4.5Z" fill="#999999"/>
<path fill-rule="evenodd" clip-rule="evenodd" d="M9.0001 9.1875C7.26494 9.1875 5.66629 9.58191 4.48169 10.2483C3.31471 10.9047 2.4376 11.8995 2.4376 13.125L2.43755 13.2015C2.4367 14.0728 2.43564 15.1665 3.39491 15.9477C3.86701 16.3321 4.52746 16.6055 5.41976 16.7861C6.31455 16.9672 7.48077 17.0625 9.0001 17.0625C10.5194 17.0625 11.6857 16.9672 12.5804 16.7861C13.4727 16.6055 14.1332 16.3321 14.6053 15.9477C15.5646 15.1665 15.5635 14.0729 15.5627 13.2015L15.5626 13.125C15.5626 11.8995 14.6855 10.9047 13.5185 10.2483C12.3339 9.58191 10.7353 9.1875 9.0001 9.1875ZM3.5626 13.125C3.5626 12.4865 4.02863 11.7939 5.03323 11.2288C6.0202 10.6736 7.42156 10.3125 9.0001 10.3125C10.5786 10.3125 11.98 10.6736 12.967 11.2288C13.9716 11.7939 14.4376 12.4865 14.4376 13.125C14.4376 14.1058 14.4074 14.658 13.8949 15.0753C13.617 15.3016 13.1525 15.5225 12.3573 15.6835C11.5645 15.8439 10.4808 15.9375 9.0001 15.9375C7.51943 15.9375 6.43566 15.8439 5.64294 15.6835C4.84774 15.5225 4.38319 15.3016 4.10529 15.0753C3.59284 14.658 3.5626 14.1058 3.5626 13.125Z" fill="#999999"/>
</svg>
