<svg width="1921" height="1248" viewBox="0 0 1921 1248" fill="none" xmlns="http://www.w3.org/2000/svg">
<path d="M0 0H1920V1248H0V0Z" fill="url(#paint0_linear_257_4197)"/>
<g opacity="0.4">
<mask id="mask0_257_4197" style="mask-type:alpha" maskUnits="userSpaceOnUse" x="1522" y="135" width="216" height="218">
<circle cx="1524.24" cy="137.24" r="2.23973" fill="#D9D9D9"/>
<circle cx="1524.24" cy="156.651" r="2.23973" fill="#D9D9D9"/>
<circle cx="1524.24" cy="176.062" r="2.23973" fill="#D9D9D9"/>
<circle cx="1524.24" cy="195.472" r="2.23973" fill="#D9D9D9"/>
<circle cx="1524.24" cy="214.883" r="2.23973" fill="#D9D9D9"/>
<circle cx="1524.24" cy="234.294" r="2.23973" fill="#D9D9D9"/>
<circle cx="1524.24" cy="253.706" r="2.23973" fill="#D9D9D9"/>
<circle cx="1524.24" cy="273.117" r="2.23973" fill="#D9D9D9"/>
<circle cx="1524.24" cy="292.528" r="2.23973" fill="#D9D9D9"/>
<circle cx="1524.24" cy="311.938" r="2.23973" fill="#D9D9D9"/>
<circle cx="1524.24" cy="331.349" r="2.23973" fill="#D9D9D9"/>
<circle cx="1524.24" cy="350.76" r="2.23973" fill="#D9D9D9"/>
<circle cx="1547.63" cy="137.24" r="2.23973" fill="#D9D9D9"/>
<circle cx="1547.63" cy="156.651" r="2.23973" fill="#D9D9D9"/>
<circle cx="1547.63" cy="176.062" r="2.23973" fill="#D9D9D9"/>
<circle cx="1547.63" cy="195.472" r="2.23973" fill="#D9D9D9"/>
<circle cx="1547.63" cy="214.883" r="2.23973" fill="#D9D9D9"/>
<circle cx="1547.63" cy="234.294" r="2.23973" fill="#D9D9D9"/>
<circle cx="1547.63" cy="253.706" r="2.23973" fill="#D9D9D9"/>
<circle cx="1547.63" cy="273.117" r="2.23973" fill="#D9D9D9"/>
<circle cx="1547.63" cy="292.528" r="2.23973" fill="#D9D9D9"/>
<circle cx="1547.63" cy="311.938" r="2.23973" fill="#D9D9D9"/>
<circle cx="1547.63" cy="331.349" r="2.23973" fill="#D9D9D9"/>
<circle cx="1547.63" cy="350.76" r="2.23973" fill="#D9D9D9"/>
<circle cx="1571.03" cy="137.24" r="2.23973" fill="#D9D9D9"/>
<circle cx="1571.03" cy="156.651" r="2.23973" fill="#D9D9D9"/>
<circle cx="1571.03" cy="176.062" r="2.23973" fill="#D9D9D9"/>
<circle cx="1571.03" cy="195.472" r="2.23973" fill="#D9D9D9"/>
<circle cx="1571.03" cy="214.883" r="2.23973" fill="#D9D9D9"/>
<circle cx="1571.03" cy="234.294" r="2.23973" fill="#D9D9D9"/>
<circle cx="1571.03" cy="253.706" r="2.23973" fill="#D9D9D9"/>
<circle cx="1571.03" cy="273.117" r="2.23973" fill="#D9D9D9"/>
<circle cx="1571.03" cy="292.528" r="2.23973" fill="#D9D9D9"/>
<circle cx="1571.03" cy="311.938" r="2.23973" fill="#D9D9D9"/>
<circle cx="1571.03" cy="331.349" r="2.23973" fill="#D9D9D9"/>
<circle cx="1571.03" cy="350.76" r="2.23973" fill="#D9D9D9"/>
<circle cx="1594.42" cy="137.24" r="2.23973" fill="#D9D9D9"/>
<circle cx="1594.42" cy="156.651" r="2.23973" fill="#D9D9D9"/>
<circle cx="1594.42" cy="176.062" r="2.23973" fill="#D9D9D9"/>
<circle cx="1594.42" cy="195.472" r="2.23973" fill="#D9D9D9"/>
<circle cx="1594.42" cy="214.883" r="2.23973" fill="#D9D9D9"/>
<circle cx="1594.42" cy="234.294" r="2.23973" fill="#D9D9D9"/>
<circle cx="1594.42" cy="253.706" r="2.23973" fill="#D9D9D9"/>
<circle cx="1594.42" cy="273.117" r="2.23973" fill="#D9D9D9"/>
<circle cx="1594.42" cy="292.528" r="2.23973" fill="#D9D9D9"/>
<circle cx="1594.42" cy="311.938" r="2.23973" fill="#D9D9D9"/>
<circle cx="1594.42" cy="331.349" r="2.23973" fill="#D9D9D9"/>
<circle cx="1594.42" cy="350.76" r="2.23973" fill="#D9D9D9"/>
<circle cx="1617.81" cy="137.24" r="2.23973" fill="#D9D9D9"/>
<circle cx="1617.81" cy="156.651" r="2.23973" fill="#D9D9D9"/>
<circle cx="1617.81" cy="176.062" r="2.23973" fill="#D9D9D9"/>
<circle cx="1617.81" cy="195.472" r="2.23973" fill="#D9D9D9"/>
<circle cx="1617.81" cy="214.883" r="2.23973" fill="#D9D9D9"/>
<circle cx="1617.81" cy="234.294" r="2.23973" fill="#D9D9D9"/>
<circle cx="1617.81" cy="253.706" r="2.23973" fill="#D9D9D9"/>
<circle cx="1617.81" cy="273.117" r="2.23973" fill="#D9D9D9"/>
<circle cx="1617.81" cy="292.528" r="2.23973" fill="#D9D9D9"/>
<circle cx="1617.81" cy="311.938" r="2.23973" fill="#D9D9D9"/>
<circle cx="1617.81" cy="331.349" r="2.23973" fill="#D9D9D9"/>
<circle cx="1617.81" cy="350.76" r="2.23973" fill="#D9D9D9"/>
<circle cx="1641.2" cy="137.24" r="2.23973" fill="#D9D9D9"/>
<circle cx="1641.2" cy="156.651" r="2.23973" fill="#D9D9D9"/>
<circle cx="1641.2" cy="176.062" r="2.23973" fill="#D9D9D9"/>
<circle cx="1641.2" cy="195.472" r="2.23973" fill="#D9D9D9"/>
<circle cx="1641.2" cy="214.883" r="2.23973" fill="#D9D9D9"/>
<circle cx="1641.2" cy="234.294" r="2.23973" fill="#D9D9D9"/>
<circle cx="1641.2" cy="253.706" r="2.23973" fill="#D9D9D9"/>
<circle cx="1641.2" cy="273.117" r="2.23973" fill="#D9D9D9"/>
<circle cx="1641.2" cy="292.528" r="2.23973" fill="#D9D9D9"/>
<circle cx="1641.2" cy="311.938" r="2.23973" fill="#D9D9D9"/>
<circle cx="1641.2" cy="331.349" r="2.23973" fill="#D9D9D9"/>
<circle cx="1641.2" cy="350.76" r="2.23973" fill="#D9D9D9"/>
<circle cx="1664.6" cy="137.24" r="2.23973" fill="#D9D9D9"/>
<circle cx="1664.6" cy="156.651" r="2.23973" fill="#D9D9D9"/>
<circle cx="1664.6" cy="176.062" r="2.23973" fill="#D9D9D9"/>
<circle cx="1664.6" cy="195.472" r="2.23973" fill="#D9D9D9"/>
<circle cx="1664.6" cy="214.883" r="2.23973" fill="#D9D9D9"/>
<circle cx="1664.6" cy="234.294" r="2.23973" fill="#D9D9D9"/>
<circle cx="1664.6" cy="253.706" r="2.23973" fill="#D9D9D9"/>
<circle cx="1664.6" cy="273.117" r="2.23973" fill="#D9D9D9"/>
<circle cx="1664.6" cy="292.527" r="2.23973" fill="#D9D9D9"/>
<circle cx="1664.6" cy="311.939" r="2.23973" fill="#D9D9D9"/>
<circle cx="1664.6" cy="331.349" r="2.23973" fill="#D9D9D9"/>
<circle cx="1664.6" cy="350.76" r="2.23973" fill="#D9D9D9"/>
<circle cx="1687.99" cy="137.24" r="2.23973" fill="#D9D9D9"/>
<circle cx="1687.99" cy="156.651" r="2.23973" fill="#D9D9D9"/>
<circle cx="1687.99" cy="176.062" r="2.23973" fill="#D9D9D9"/>
<circle cx="1687.99" cy="195.472" r="2.23973" fill="#D9D9D9"/>
<circle cx="1687.99" cy="214.883" r="2.23973" fill="#D9D9D9"/>
<circle cx="1687.99" cy="234.294" r="2.23973" fill="#D9D9D9"/>
<circle cx="1687.99" cy="253.706" r="2.23973" fill="#D9D9D9"/>
<circle cx="1687.99" cy="273.117" r="2.23973" fill="#D9D9D9"/>
<circle cx="1687.99" cy="292.528" r="2.23973" fill="#D9D9D9"/>
<circle cx="1687.99" cy="311.938" r="2.23973" fill="#D9D9D9"/>
<circle cx="1687.99" cy="331.349" r="2.23973" fill="#D9D9D9"/>
<circle cx="1687.99" cy="350.76" r="2.23973" fill="#D9D9D9"/>
<circle cx="1711.38" cy="137.24" r="2.23973" fill="#D9D9D9"/>
<circle cx="1711.38" cy="156.651" r="2.23973" fill="#D9D9D9"/>
<circle cx="1711.38" cy="176.062" r="2.23973" fill="#D9D9D9"/>
<circle cx="1711.38" cy="195.472" r="2.23973" fill="#D9D9D9"/>
<circle cx="1711.38" cy="214.883" r="2.23973" fill="#D9D9D9"/>
<circle cx="1711.38" cy="234.294" r="2.23973" fill="#D9D9D9"/>
<circle cx="1711.38" cy="253.706" r="2.23973" fill="#D9D9D9"/>
<circle cx="1711.38" cy="273.117" r="2.23973" fill="#D9D9D9"/>
<circle cx="1711.38" cy="292.528" r="2.23973" fill="#D9D9D9"/>
<circle cx="1711.38" cy="311.938" r="2.23973" fill="#D9D9D9"/>
<circle cx="1711.38" cy="331.349" r="2.23973" fill="#D9D9D9"/>
<circle cx="1711.38" cy="350.76" r="2.23973" fill="#D9D9D9"/>
<circle cx="1734.77" cy="137.24" r="2.23973" fill="#D9D9D9"/>
<circle cx="1734.77" cy="156.651" r="2.23973" fill="#D9D9D9"/>
<circle cx="1734.77" cy="176.062" r="2.23973" fill="#D9D9D9"/>
<circle cx="1734.77" cy="195.472" r="2.23973" fill="#D9D9D9"/>
<circle cx="1734.77" cy="214.883" r="2.23973" fill="#D9D9D9"/>
<circle cx="1734.77" cy="234.294" r="2.23973" fill="#D9D9D9"/>
<circle cx="1734.77" cy="253.706" r="2.23973" fill="#D9D9D9"/>
<circle cx="1734.77" cy="273.117" r="2.23973" fill="#D9D9D9"/>
<circle cx="1734.77" cy="292.528" r="2.23973" fill="#D9D9D9"/>
<circle cx="1734.77" cy="311.938" r="2.23973" fill="#D9D9D9"/>
<circle cx="1734.77" cy="331.349" r="2.23973" fill="#D9D9D9"/>
<circle cx="1734.77" cy="350.76" r="2.23973" fill="#D9D9D9"/>
</mask>
<g mask="url(#mask0_257_4197)">
<circle cx="1629.51" cy="244" r="108.005" fill="#979797"/>
</g>
</g>
<g opacity="0.6" clip-path="url(#clip0_257_4197)">
<path d="M73.6914 939.717L5.49113 844.901L-63.8271 939.717C-56.0009 951.243 -31.1805 974.296 5.49113 974.296C42.1627 974.296 66.2378 951.243 73.6914 939.717Z" fill="#282828"/>
<path d="M64.7237 974.297C13.1338 1011.12 -35.7204 989.639 -53.6987 974.297L-79.4937 1009.7C-70.1137 1021.11 -39.6287 1043.93 7.27127 1043.93C54.1712 1043.93 82.3112 1021.11 90.5187 1009.7L64.7237 974.297Z" fill="#282828"/>
<path d="M77.0185 1042.77C60.887 1063.37 23.2467 1067.02 6.44304 1066.28C-36.5744 1066.28 -61.5185 1050.6 -68.6134 1042.77L-88.7778 1076.35C-68.6134 1096.5 -32.0187 1106.95 -12.6011 1108.82V1137.93H22.1265V1108.82C57.0781 1108.82 89.7146 1087.17 105.025 1076.35L77.0185 1042.77Z" fill="#282828"/>
</g>
<g clip-path="url(#clip1_257_4197)">
<g opacity="0.1">
<mask id="mask1_257_4197" style="mask-type:alpha" maskUnits="userSpaceOnUse" x="-252" y="120" width="1078" height="140">
<path d="M690.67 259.929C641.126 259.929 615.156 235.141 596.186 216.999C580.347 201.73 573.164 195.623 556.035 195.623C538.906 195.623 531.907 201.73 515.884 216.999C496.913 235.141 470.944 259.929 421.4 259.929C371.855 259.929 345.886 235.141 326.916 216.999C311.076 201.73 303.893 195.623 286.764 195.623C269.636 195.623 262.453 201.73 246.613 216.999C227.643 235.141 201.674 259.929 152.129 259.929C102.585 259.929 76.6156 235.141 57.6451 216.999C41.8057 201.73 34.6228 195.623 17.4941 195.623C0.365387 195.623 -6.81761 201.73 -22.6571 216.999C-41.6275 235.141 -67.5969 259.929 -117.141 259.929C-166.685 259.929 -192.655 235.141 -211.625 216.999C-227.465 201.73 -234.648 195.623 -251.776 195.623V120C-202.232 120 -176.263 144.789 -157.292 162.931C-141.453 178.019 -134.27 184.306 -117.141 184.306C-100.012 184.306 -92.8295 178.199 -76.99 162.931C-58.0195 144.789 -32.0502 120 17.4941 120C67.0384 120 93.0077 144.789 111.978 162.931C127.818 178.019 135.001 184.306 152.129 184.306C169.258 184.306 176.441 178.199 192.28 162.931C211.251 144.789 237.22 120 286.764 120C336.309 120 362.278 144.789 381.248 162.931C397.088 178.019 404.271 184.306 421.4 184.306C438.528 184.306 445.711 178.199 461.551 162.931C480.521 144.789 506.491 120 555.851 120C605.211 120 631.364 144.789 650.335 162.931C666.174 178.199 673.357 184.306 690.486 184.306C707.615 184.306 714.798 178.199 730.637 162.931C749.607 144.789 775.577 120 825.121 120V195.623C807.992 195.623 800.809 201.73 784.97 216.999C766 235.141 740.03 259.929 690.486 259.929H690.67Z" fill="#CACACA"/>
</mask>
<g mask="url(#mask1_257_4197)">
<path d="M4.12672 236.162C6.61719 236.162 8.55422 234.272 8.55422 231.843C8.55422 229.414 6.61719 227.525 4.12672 227.525C1.63625 227.525 -0.300781 229.414 -0.300781 231.843C-0.300781 234.272 1.63625 236.162 4.12672 236.162Z" fill="#CACACA"/>
<path d="M4.12672 265.307C6.61719 265.307 8.55422 263.418 8.55422 260.989C8.55422 258.56 6.61719 256.671 4.12672 256.671C1.63625 256.671 -0.300781 258.56 -0.300781 260.989C-0.300781 263.418 1.63625 265.307 4.12672 265.307Z" fill="#CACACA"/>
<path d="M19.073 250.734C21.5635 250.734 23.5005 248.845 23.5005 246.416C23.5005 243.987 21.5635 242.098 19.073 242.098C16.5825 242.098 14.6455 243.987 14.6455 246.416C14.6455 248.845 16.5825 250.734 19.073 250.734Z" fill="#CACACA"/>
<path d="M34.0105 236.162C34.0105 236.162 36.2243 235.622 37.0544 234.812C37.8846 234.002 38.438 232.923 38.438 231.843C38.438 230.764 37.8846 229.685 37.0544 228.875C36.2243 228.065 35.1174 227.525 34.0105 227.525C32.9036 227.525 31.7967 228.065 30.9666 228.875C30.1364 229.685 29.583 230.764 29.583 231.843C29.583 232.923 30.1364 234.002 30.9666 234.812C31.7967 235.622 32.9036 236.162 34.0105 236.162Z" fill="#CACACA"/>
<path d="M34.0105 265.306C34.0105 265.306 36.2243 264.766 37.0544 263.957C37.8846 263.147 38.438 262.067 38.438 260.988C38.438 259.908 37.8846 258.829 37.0544 258.019C36.2243 257.21 35.1174 256.67 34.0105 256.67C32.9036 256.67 31.7967 257.21 30.9666 258.019C30.1364 258.829 29.583 259.908 29.583 260.988C29.583 262.067 30.1364 263.147 30.9666 263.957C31.7967 264.766 32.9036 265.306 34.0105 265.306Z" fill="#CACACA"/>
<path d="M4.12672 178.136C6.61719 178.136 8.55422 176.247 8.55422 173.818C8.55422 173.278 8.55426 172.739 8.27754 172.199C7.72411 170.579 6.06375 169.5 4.12672 169.5C2.18968 169.5 0.806154 170.579 -0.0240032 172.199C-0.0240032 172.739 -0.300781 173.278 -0.300781 173.818C-0.300781 176.247 1.63625 178.136 4.12672 178.136Z" fill="#CACACA"/>
<path d="M4.12672 207.284C6.61719 207.284 8.55422 205.394 8.55422 202.965C8.55422 200.537 6.61719 198.647 4.12672 198.647C1.63625 198.647 -0.300781 200.537 -0.300781 202.965C-0.300781 205.394 1.63625 207.284 4.12672 207.284Z" fill="#CACACA"/>
<path d="M19.073 192.71C21.5635 192.71 23.5005 190.821 23.5005 188.392C23.5005 185.963 21.5635 184.074 19.073 184.074C16.5825 184.074 14.6455 185.963 14.6455 188.392C14.6455 190.821 16.5825 192.71 19.073 192.71Z" fill="#CACACA"/>
<path d="M19.073 221.586C21.5635 221.586 23.5005 219.697 23.5005 217.268C23.5005 214.839 21.5635 212.95 19.073 212.95C16.5825 212.95 14.6455 214.839 14.6455 217.268C14.6455 219.697 16.5825 221.586 19.073 221.586Z" fill="#CACACA"/>
<path d="M34.0108 178.136C34.0108 178.136 36.2245 177.596 37.0547 176.787C37.8848 175.977 38.4383 174.898 38.4383 173.818C38.4383 173.278 38.4382 172.739 38.1615 172.199C38.1615 171.659 37.6081 171.119 37.3314 170.849C36.5012 170.04 35.3943 169.5 34.2874 169.5C33.1806 169.5 32.0737 170.04 31.2435 170.849C30.9668 171.119 30.4134 171.659 30.4134 172.199C30.4134 172.739 30.1367 173.278 30.1367 173.818C30.1367 174.898 30.6901 175.977 31.5203 176.787C32.3504 177.596 33.4573 178.136 34.5642 178.136H34.0108Z" fill="#CACACA"/>
<path d="M34.0105 207.283C34.0105 207.283 36.2243 206.743 37.0544 205.933C37.8846 205.123 38.438 204.044 38.438 202.964C38.438 201.885 37.8846 200.805 37.0544 199.996C36.2243 199.186 35.1174 198.646 34.0105 198.646C32.9036 198.646 31.7967 199.186 30.9666 199.996C30.1364 200.805 29.583 201.885 29.583 202.964C29.583 204.044 30.1364 205.123 30.9666 205.933C31.7967 206.743 32.9036 207.283 34.0105 207.283Z" fill="#CACACA"/>
<path d="M4.12647 120.112C6.61694 120.112 8.55397 118.223 8.55397 115.794C8.55397 115.254 8.55402 114.714 8.2773 114.175C7.72386 112.555 6.06351 111.476 4.12647 111.476C2.18944 111.476 0.80591 112.555 -0.0242473 114.175C-0.0242473 114.714 -0.301025 115.254 -0.301025 115.794C-0.301025 118.223 1.636 120.112 4.12647 120.112Z" fill="#CACACA"/>
<path d="M4.12672 149.258C6.61719 149.258 8.55422 147.369 8.55422 144.94C8.55422 142.511 6.61719 140.622 4.12672 140.622C1.63625 140.622 -0.300781 142.511 -0.300781 144.94C-0.300781 147.369 1.63625 149.258 4.12672 149.258Z" fill="#CACACA"/>
<path d="M19.073 134.686C21.5635 134.686 23.5005 132.797 23.5005 130.368C23.5005 127.939 21.5635 126.05 19.073 126.05C16.5825 126.05 14.6455 127.939 14.6455 130.368C14.6455 132.797 16.5825 134.686 19.073 134.686Z" fill="#CACACA"/>
<path d="M19.073 163.564C21.5635 163.564 23.5005 161.675 23.5005 159.246C23.5005 156.817 21.5635 154.928 19.073 154.928C16.5825 154.928 14.6455 156.817 14.6455 159.246C14.6455 161.675 16.5825 163.564 19.073 163.564Z" fill="#CACACA"/>
<path d="M34.0108 120.112C34.0108 120.112 36.2245 119.572 37.0547 118.762C37.8848 117.953 38.4383 116.873 38.4383 115.794C38.4383 115.254 38.4382 114.714 38.1615 114.175C38.1615 113.635 37.6081 113.095 37.3314 112.825C36.5012 112.015 35.3943 111.476 34.2874 111.476C33.1806 111.476 32.0737 112.015 31.2435 112.825C30.9668 113.095 30.4134 113.635 30.4134 114.175C30.4134 114.714 30.1367 115.254 30.1367 115.794C30.1367 116.873 30.6901 117.953 31.5203 118.762C32.3504 119.572 33.4573 120.112 34.5642 120.112H34.0108Z" fill="#CACACA"/>
<path d="M34.0105 149.258C34.0105 149.258 36.2243 148.719 37.0544 147.909C37.8846 147.099 38.438 146.02 38.438 144.94C38.438 143.861 37.8846 142.781 37.0544 141.972C36.2243 141.162 35.1174 140.622 34.0105 140.622C32.9036 140.622 31.7967 141.162 30.9666 141.972C30.1364 142.781 29.583 143.861 29.583 144.94C29.583 146.02 30.1364 147.099 30.9666 147.909C31.7967 148.719 32.9036 149.258 34.0105 149.258Z" fill="#CACACA"/>
<path d="M63.6209 236.162C66.1113 236.162 68.0484 234.272 68.0484 231.843C68.0484 229.414 66.1113 227.525 63.6209 227.525C61.1304 227.525 59.1934 229.414 59.1934 231.843C59.1934 234.272 61.1304 236.162 63.6209 236.162Z" fill="#CACACA"/>
<path d="M63.6209 265.307C66.1113 265.307 68.0484 263.418 68.0484 260.989C68.0484 258.56 66.1113 256.671 63.6209 256.671C61.1304 256.671 59.1934 258.56 59.1934 260.989C59.1934 263.418 61.1304 265.307 63.6209 265.307Z" fill="#CACACA"/>
<path d="M78.5632 250.734C81.0537 250.734 82.9907 248.845 82.9907 246.416C82.9907 243.987 81.0537 242.098 78.5632 242.098C76.0728 242.098 74.1357 243.987 74.1357 246.416C74.1357 248.845 76.0728 250.734 78.5632 250.734Z" fill="#CACACA"/>
<path d="M48.6746 250.734C51.165 250.734 53.1021 248.845 53.1021 246.416C53.1021 243.987 51.165 242.098 48.6746 242.098C46.1841 242.098 44.2471 243.987 44.2471 246.416C44.2471 248.845 46.1841 250.734 48.6746 250.734Z" fill="#CACACA"/>
<path d="M93.5095 236.162C93.5095 236.162 95.7233 235.622 96.5535 234.812C97.3836 234.002 97.937 232.923 97.937 231.843C97.937 230.764 97.3836 229.685 96.5535 228.875C95.7233 228.065 94.6164 227.525 93.5095 227.525C92.4027 227.525 91.2959 228.065 90.4657 228.875C89.6356 229.685 89.082 230.764 89.082 231.843C89.082 232.923 89.6356 234.002 90.4657 234.812C91.2959 235.622 92.4027 236.162 93.5095 236.162Z" fill="#CACACA"/>
<path d="M93.5095 265.307C93.5095 265.307 95.7233 264.767 96.5535 263.958C97.3836 263.148 97.937 262.068 97.937 260.989C97.937 259.909 97.3836 258.83 96.5535 258.02C95.7233 257.211 94.6164 256.671 93.5095 256.671C92.4027 256.671 91.2959 257.211 90.4657 258.02C89.6356 258.83 89.082 259.909 89.082 260.989C89.082 262.068 89.6356 263.148 90.4657 263.958C91.2959 264.767 92.4027 265.307 93.5095 265.307Z" fill="#CACACA"/>
<path d="M63.6209 178.136C66.1113 178.136 68.0484 176.247 68.0484 173.818C68.0484 173.278 68.0483 172.739 67.7716 172.199C67.2181 170.579 65.5579 169.5 63.6209 169.5C61.6838 169.5 60.3002 170.579 59.47 172.199C59.47 172.739 59.1934 173.278 59.1934 173.818C59.1934 176.247 61.1304 178.136 63.6209 178.136Z" fill="#CACACA"/>
<path d="M63.6209 207.284C66.1113 207.284 68.0484 205.394 68.0484 202.965C68.0484 200.537 66.1113 198.647 63.6209 198.647C61.1304 198.647 59.1934 200.537 59.1934 202.965C59.1934 205.394 61.1304 207.284 63.6209 207.284Z" fill="#CACACA"/>
<path d="M78.5632 192.71C81.0537 192.71 82.9907 190.821 82.9907 188.392C82.9907 185.963 81.0537 184.074 78.5632 184.074C76.0728 184.074 74.1357 185.963 74.1357 188.392C74.1357 190.821 76.0728 192.71 78.5632 192.71Z" fill="#CACACA"/>
<path d="M48.6746 192.71C51.165 192.71 53.1021 190.821 53.1021 188.392C53.1021 185.963 51.165 184.074 48.6746 184.074C46.1841 184.074 44.2471 185.963 44.2471 188.392C44.2471 190.821 46.1841 192.71 48.6746 192.71Z" fill="#CACACA"/>
<path d="M78.5632 221.586C81.0537 221.586 82.9907 219.697 82.9907 217.268C82.9907 214.839 81.0537 212.95 78.5632 212.95C76.0728 212.95 74.1357 214.839 74.1357 217.268C74.1357 219.697 76.0728 221.586 78.5632 221.586Z" fill="#CACACA"/>
<path d="M48.6746 221.586C51.165 221.586 53.1021 219.697 53.1021 217.268C53.1021 214.839 51.165 212.95 48.6746 212.95C46.1841 212.95 44.2471 214.839 44.2471 217.268C44.2471 219.697 46.1841 221.586 48.6746 221.586Z" fill="#CACACA"/>
<path d="M93.5088 178.136C93.5088 178.136 95.7226 177.596 96.5527 176.787C97.3829 175.977 97.9363 174.898 97.9363 173.818C97.9363 173.278 97.9364 172.739 97.6596 172.199C97.6596 171.659 97.1062 171.119 96.8295 170.849C95.9994 170.04 94.8925 169.5 93.7856 169.5C92.6787 169.5 91.5718 170.04 90.7417 170.849C90.4649 171.119 89.9115 171.659 89.9115 172.199C89.9115 172.739 89.6348 173.278 89.6348 173.818C89.6348 174.898 90.1882 175.977 91.0183 176.787C91.8485 177.596 92.9554 178.136 94.0623 178.136H93.5088Z" fill="#CACACA"/>
<path d="M93.5095 207.284C93.5095 207.284 95.7233 206.744 96.5535 205.934C97.3836 205.124 97.937 204.045 97.937 202.965C97.937 201.886 97.3836 200.806 96.5535 199.997C95.7233 199.187 94.6164 198.647 93.5095 198.647C92.4027 198.647 91.2959 199.187 90.4657 199.997C89.6356 200.806 89.082 201.886 89.082 202.965C89.082 204.045 89.6356 205.124 90.4657 205.934C91.2959 206.744 92.4027 207.284 93.5095 207.284Z" fill="#CACACA"/>
<path d="M63.6206 120.112C66.1111 120.112 68.0481 118.223 68.0481 115.794C68.0481 115.254 68.0481 114.714 67.7713 114.175C67.2179 112.555 65.5576 111.476 63.6206 111.476C61.6836 111.476 60.2999 112.555 59.4698 114.175C59.4698 114.714 59.1931 115.254 59.1931 115.794C59.1931 118.223 61.1301 120.112 63.6206 120.112Z" fill="#CACACA"/>
<path d="M63.6209 149.258C66.1113 149.258 68.0484 147.369 68.0484 144.94C68.0484 142.511 66.1113 140.622 63.6209 140.622C61.1304 140.622 59.1934 142.511 59.1934 144.94C59.1934 147.369 61.1304 149.258 63.6209 149.258Z" fill="#CACACA"/>
<path d="M78.5632 134.686C81.0537 134.686 82.9907 132.797 82.9907 130.368C82.9907 127.939 81.0537 126.05 78.5632 126.05C76.0728 126.05 74.1357 127.939 74.1357 130.368C74.1357 132.797 76.0728 134.686 78.5632 134.686Z" fill="#CACACA"/>
<path d="M48.6746 134.686C51.165 134.686 53.1021 132.797 53.1021 130.368C53.1021 127.939 51.165 126.05 48.6746 126.05C46.1841 126.05 44.2471 127.939 44.2471 130.368C44.2471 132.797 46.1841 134.686 48.6746 134.686Z" fill="#CACACA"/>
<path d="M78.5632 163.564C81.0537 163.564 82.9907 161.675 82.9907 159.246C82.9907 156.817 81.0537 154.928 78.5632 154.928C76.0728 154.928 74.1357 156.817 74.1357 159.246C74.1357 161.675 76.0728 163.564 78.5632 163.564Z" fill="#CACACA"/>
<path d="M48.6746 163.564C51.165 163.564 53.1021 161.675 53.1021 159.246C53.1021 156.817 51.165 154.928 48.6746 154.928C46.1841 154.928 44.2471 156.817 44.2471 159.246C44.2471 161.675 46.1841 163.564 48.6746 163.564Z" fill="#CACACA"/>
<path d="M93.5088 120.112C93.5088 120.112 95.7226 119.572 96.5527 118.762C97.3829 117.953 97.9363 116.873 97.9363 115.794C97.9363 115.254 97.9364 114.714 97.6596 114.175C97.6596 113.635 97.1062 113.095 96.8295 112.825C95.9994 112.015 94.8925 111.476 93.7856 111.476C92.6787 111.476 91.5718 112.015 90.7417 112.825C90.4649 113.095 89.9115 113.635 89.9115 114.175C89.9115 114.714 89.6348 115.254 89.6348 115.794C89.6348 116.873 90.1882 117.953 91.0183 118.762C91.8485 119.572 92.9554 120.112 94.0623 120.112H93.5088Z" fill="#CACACA"/>
<path d="M93.5095 149.258C93.5095 149.258 95.7233 148.719 96.5535 147.909C97.3836 147.099 97.937 146.02 97.937 144.94C97.937 143.861 97.3836 142.781 96.5535 141.972C95.7233 141.162 94.6164 140.622 93.5095 140.622C92.4027 140.622 91.2959 141.162 90.4657 141.972C89.6356 142.781 89.082 143.861 89.082 144.94C89.082 146.02 89.6356 147.099 90.4657 147.909C91.2959 148.719 92.4027 149.258 93.5095 149.258Z" fill="#CACACA"/>
<path d="M123.11 236.162C125.601 236.162 127.538 234.272 127.538 231.843C127.538 229.414 125.601 227.525 123.11 227.525C120.62 227.525 118.683 229.414 118.683 231.843C118.683 234.272 120.62 236.162 123.11 236.162Z" fill="#CACACA"/>
<path d="M123.11 265.307C125.601 265.307 127.538 263.418 127.538 260.989C127.538 258.56 125.601 256.671 123.11 256.671C120.62 256.671 118.683 258.56 118.683 260.989C118.683 263.418 120.62 265.307 123.11 265.307Z" fill="#CACACA"/>
<path d="M138.057 250.734C140.548 250.734 142.485 248.845 142.485 246.416C142.485 243.987 140.548 242.098 138.057 242.098C135.567 242.098 133.63 243.987 133.63 246.416C133.63 248.845 135.567 250.734 138.057 250.734Z" fill="#CACACA"/>
<path d="M108.452 250.734C110.897 250.734 112.879 248.8 112.879 246.416C112.879 244.031 110.897 242.098 108.452 242.098C106.007 242.098 104.024 244.031 104.024 246.416C104.024 248.8 106.007 250.734 108.452 250.734Z" fill="#CACACA"/>
<path d="M152.999 236.162C152.999 236.162 155.213 235.622 156.043 234.812C156.873 234.002 157.426 232.923 157.426 231.843C157.426 230.764 156.873 229.685 156.043 228.875C155.213 228.065 154.106 227.525 152.999 227.525C151.892 227.525 150.785 228.065 149.955 228.875C149.125 229.685 148.571 230.764 148.571 231.843C148.571 232.923 149.125 234.002 149.955 234.812C150.785 235.622 151.892 236.162 152.999 236.162Z" fill="#CACACA"/>
<path d="M152.999 265.306C152.999 265.306 155.213 264.766 156.043 263.957C156.873 263.147 157.426 262.067 157.426 260.988C157.426 259.908 156.873 258.829 156.043 258.019C155.213 257.21 154.106 256.67 152.999 256.67C151.892 256.67 150.785 257.21 149.955 258.019C149.125 258.829 148.571 259.908 148.571 260.988C148.571 262.067 149.125 263.147 149.955 263.957C150.785 264.766 151.892 265.306 152.999 265.306Z" fill="#CACACA"/>
<path d="M123.11 178.136C125.601 178.136 127.538 176.247 127.538 173.818C127.538 173.278 127.538 172.739 127.261 172.199C126.708 170.579 125.047 169.5 123.11 169.5C121.173 169.5 119.79 170.579 118.959 172.199C118.959 172.739 118.683 173.278 118.683 173.818C118.683 176.247 120.62 178.136 123.11 178.136Z" fill="#CACACA"/>
<path d="M123.11 207.284C125.601 207.284 127.538 205.394 127.538 202.965C127.538 200.537 125.601 198.647 123.11 198.647C120.62 198.647 118.683 200.537 118.683 202.965C118.683 205.394 120.62 207.284 123.11 207.284Z" fill="#CACACA"/>
<path d="M138.057 192.71C140.548 192.71 142.485 190.821 142.485 188.392C142.485 185.963 140.548 184.074 138.057 184.074C135.567 184.074 133.63 185.963 133.63 188.392C133.63 190.821 135.567 192.71 138.057 192.71Z" fill="#CACACA"/>
<path d="M108.452 192.71C110.897 192.71 112.879 190.777 112.879 188.392C112.879 186.008 110.897 184.074 108.452 184.074C106.007 184.074 104.024 186.008 104.024 188.392C104.024 190.777 106.007 192.71 108.452 192.71Z" fill="#CACACA"/>
<path d="M138.057 221.586C140.548 221.586 142.485 219.697 142.485 217.268C142.485 214.839 140.548 212.95 138.057 212.95C135.567 212.95 133.63 214.839 133.63 217.268C133.63 219.697 135.567 221.586 138.057 221.586Z" fill="#CACACA"/>
<path d="M108.452 221.586C110.897 221.586 112.879 219.653 112.879 217.268C112.879 214.884 110.897 212.95 108.452 212.95C106.007 212.95 104.024 214.884 104.024 217.268C104.024 219.653 106.007 221.586 108.452 221.586Z" fill="#CACACA"/>
<path d="M152.999 178.136C152.999 178.136 155.213 177.596 156.043 176.787C156.873 175.977 157.427 174.898 157.427 173.818C157.427 173.278 157.427 172.739 157.15 172.199C157.15 171.659 156.596 171.119 156.32 170.849C155.489 170.04 154.383 169.5 153.276 169.5C152.169 169.5 151.062 170.04 150.232 170.849C149.955 171.119 149.402 171.659 149.402 172.199C149.402 172.739 149.125 173.278 149.125 173.818C149.125 174.898 149.678 175.977 150.509 176.787C151.339 177.596 152.446 178.136 153.552 178.136H152.999Z" fill="#CACACA"/>
<path d="M152.999 207.283C152.999 207.283 155.213 206.743 156.043 205.933C156.873 205.123 157.426 204.044 157.426 202.964C157.426 201.885 156.873 200.805 156.043 199.996C155.213 199.186 154.106 198.646 152.999 198.646C151.892 198.646 150.785 199.186 149.955 199.996C149.125 200.805 148.571 201.885 148.571 202.964C148.571 204.044 149.125 205.123 149.955 205.933C150.785 206.743 151.892 207.283 152.999 207.283Z" fill="#CACACA"/>
<path d="M123.11 120.112C125.601 120.112 127.538 118.223 127.538 115.794C127.538 115.254 127.538 114.714 127.261 114.175C126.708 112.555 125.047 111.476 123.11 111.476C121.173 111.476 119.79 112.555 118.96 114.175C118.96 114.714 118.683 115.254 118.683 115.794C118.683 118.223 120.62 120.112 123.11 120.112Z" fill="#CACACA"/>
<path d="M123.11 149.258C125.601 149.258 127.538 147.369 127.538 144.94C127.538 142.511 125.601 140.622 123.11 140.622C120.62 140.622 118.683 142.511 118.683 144.94C118.683 147.369 120.62 149.258 123.11 149.258Z" fill="#CACACA"/>
<path d="M138.057 134.686C140.548 134.686 142.485 132.797 142.485 130.368C142.485 127.939 140.548 126.05 138.057 126.05C135.567 126.05 133.63 127.939 133.63 130.368C133.63 132.797 135.567 134.686 138.057 134.686Z" fill="#CACACA"/>
<path d="M108.452 134.686C110.897 134.686 112.879 132.753 112.879 130.368C112.879 127.983 110.897 126.05 108.452 126.05C106.007 126.05 104.024 127.983 104.024 130.368C104.024 132.753 106.007 134.686 108.452 134.686Z" fill="#CACACA"/>
<path d="M138.057 163.564C140.548 163.564 142.485 161.675 142.485 159.246C142.485 156.817 140.548 154.928 138.057 154.928C135.567 154.928 133.63 156.817 133.63 159.246C133.63 161.675 135.567 163.564 138.057 163.564Z" fill="#CACACA"/>
<path d="M108.452 163.564C110.942 163.564 112.879 161.675 112.879 159.246C112.879 156.817 110.942 154.928 108.452 154.928C105.961 154.928 104.024 156.817 104.024 159.246C104.024 161.675 105.961 163.564 108.452 163.564Z" fill="#CACACA"/>
<path d="M152.999 120.112C152.999 120.112 155.213 119.572 156.043 118.762C156.873 117.953 157.427 116.873 157.427 115.794C157.427 115.254 157.427 114.714 157.15 114.175C157.15 113.635 156.596 113.095 156.32 112.825C155.489 112.015 154.383 111.476 153.276 111.476C152.169 111.476 151.062 112.015 150.232 112.825C149.955 113.095 149.402 113.635 149.402 114.175C149.402 114.714 149.125 115.254 149.125 115.794C149.125 116.873 149.678 117.953 150.509 118.762C151.339 119.572 152.446 120.112 153.552 120.112H152.999Z" fill="#CACACA"/>
<path d="M152.999 149.258C152.999 149.258 155.213 148.719 156.043 147.909C156.873 147.099 157.426 146.02 157.426 144.94C157.426 143.861 156.873 142.781 156.043 141.972C155.213 141.162 154.106 140.622 152.999 140.622C151.892 140.622 150.785 141.162 149.955 141.972C149.125 142.781 148.571 143.861 148.571 144.94C148.571 146.02 149.125 147.099 149.955 147.909C150.785 148.719 151.892 149.258 152.999 149.258Z" fill="#CACACA"/>
<path d="M182.609 236.162C185.1 236.162 187.037 234.272 187.037 231.843C187.037 229.414 185.1 227.525 182.609 227.525C180.119 227.525 178.182 229.414 178.182 231.843C178.182 234.272 180.119 236.162 182.609 236.162Z" fill="#CACACA"/>
<path d="M182.609 265.307C185.1 265.307 187.037 263.418 187.037 260.989C187.037 258.56 185.1 256.671 182.609 256.671C180.119 256.671 178.182 258.56 178.182 260.989C178.182 263.418 180.119 265.307 182.609 265.307Z" fill="#CACACA"/>
<path d="M197.555 250.734C200.046 250.734 201.983 248.845 201.983 246.416C201.983 243.987 200.046 242.098 197.555 242.098C195.065 242.098 193.128 243.987 193.128 246.416C193.128 248.845 195.065 250.734 197.555 250.734Z" fill="#CACACA"/>
<path d="M167.946 250.734C170.437 250.734 172.374 248.845 172.374 246.416C172.374 243.987 170.437 242.098 167.946 242.098C165.456 242.098 163.519 243.987 163.519 246.416C163.519 248.845 165.456 250.734 167.946 250.734Z" fill="#CACACA"/>
<path d="M212.498 236.162C212.498 236.162 214.711 235.622 215.542 234.812C216.372 234.002 216.925 232.923 216.925 231.843C216.925 230.764 216.372 229.685 215.542 228.875C214.711 228.065 213.605 227.525 212.498 227.525C211.391 227.525 210.284 228.065 209.454 228.875C208.624 229.685 208.07 230.764 208.07 231.843C208.07 232.923 208.624 234.002 209.454 234.812C210.284 235.622 211.391 236.162 212.498 236.162Z" fill="#CACACA"/>
<path d="M212.498 265.307C212.498 265.307 214.711 264.767 215.542 263.958C216.372 263.148 216.925 262.068 216.925 260.989C216.925 259.909 216.372 258.83 215.542 258.02C214.711 257.211 213.605 256.671 212.498 256.671C211.391 256.671 210.284 257.211 209.454 258.02C208.624 258.83 208.07 259.909 208.07 260.989C208.07 262.068 208.624 263.148 209.454 263.958C210.284 264.767 211.391 265.307 212.498 265.307Z" fill="#CACACA"/>
<path d="M182.609 178.136C185.1 178.136 187.037 176.247 187.037 173.818C187.037 173.278 187.037 172.739 186.76 172.199C186.207 170.579 184.546 169.5 182.609 169.5C180.672 169.5 179.288 170.579 178.458 172.199C178.458 172.739 178.182 173.278 178.182 173.818C178.182 176.247 180.119 178.136 182.609 178.136Z" fill="#CACACA"/>
<path d="M182.609 207.284C185.1 207.284 187.037 205.394 187.037 202.965C187.037 200.537 185.1 198.647 182.609 198.647C180.119 198.647 178.182 200.537 178.182 202.965C178.182 205.394 180.119 207.284 182.609 207.284Z" fill="#CACACA"/>
<path d="M197.555 192.71C200.046 192.71 201.983 190.821 201.983 188.392C201.983 185.963 200.046 184.074 197.555 184.074C195.065 184.074 193.128 185.963 193.128 188.392C193.128 190.821 195.065 192.71 197.555 192.71Z" fill="#CACACA"/>
<path d="M167.946 192.71C170.437 192.71 172.374 190.821 172.374 188.392C172.374 185.963 170.437 184.074 167.946 184.074C165.456 184.074 163.519 185.963 163.519 188.392C163.519 190.821 165.456 192.71 167.946 192.71Z" fill="#CACACA"/>
<path d="M197.555 221.586C200.046 221.586 201.983 219.697 201.983 217.268C201.983 214.839 200.046 212.95 197.555 212.95C195.065 212.95 193.128 214.839 193.128 217.268C193.128 219.697 195.065 221.586 197.555 221.586Z" fill="#CACACA"/>
<path d="M167.946 221.586C170.437 221.586 172.374 219.697 172.374 217.268C172.374 214.839 170.437 212.95 167.946 212.95C165.456 212.95 163.519 214.839 163.519 217.268C163.519 219.697 165.456 221.586 167.946 221.586Z" fill="#CACACA"/>
<path d="M212.493 178.136C212.493 178.136 214.707 177.596 215.537 176.787C216.367 175.977 216.921 174.898 216.921 173.818C216.921 173.278 216.921 172.739 216.644 172.199C216.644 171.659 216.091 171.119 215.814 170.849C214.984 170.04 213.877 169.5 212.77 169.5C211.663 169.5 210.556 170.04 209.726 170.849C209.449 171.119 208.896 171.659 208.896 172.199C208.896 172.739 208.619 173.278 208.619 173.818C208.619 174.898 209.173 175.977 210.003 176.787C210.833 177.596 211.94 178.136 213.047 178.136H212.493Z" fill="#CACACA"/>
<path d="M212.498 207.284C212.498 207.284 214.711 206.744 215.542 205.934C216.372 205.124 216.925 204.045 216.925 202.965C216.925 201.886 216.372 200.806 215.542 199.997C214.711 199.187 213.605 198.647 212.498 198.647C211.391 198.647 210.284 199.187 209.454 199.997C208.624 200.806 208.07 201.886 208.07 202.965C208.07 204.045 208.624 205.124 209.454 205.934C210.284 206.744 211.391 207.284 212.498 207.284Z" fill="#CACACA"/>
<path d="M182.609 120.112C185.099 120.112 187.036 118.223 187.036 115.794C187.036 115.254 187.036 114.714 186.76 114.175C186.206 112.555 184.546 111.476 182.609 111.476C180.672 111.476 179.288 112.555 178.458 114.175C178.458 114.714 178.181 115.254 178.181 115.794C178.181 118.223 180.118 120.112 182.609 120.112Z" fill="#CACACA"/>
<path d="M182.609 149.258C185.1 149.258 187.037 147.369 187.037 144.94C187.037 142.511 185.1 140.622 182.609 140.622C180.119 140.622 178.182 142.511 178.182 144.94C178.182 147.369 180.119 149.258 182.609 149.258Z" fill="#CACACA"/>
<path d="M197.555 134.686C200.046 134.686 201.983 132.797 201.983 130.368C201.983 127.939 200.046 126.05 197.555 126.05C195.065 126.05 193.128 127.939 193.128 130.368C193.128 132.797 195.065 134.686 197.555 134.686Z" fill="#CACACA"/>
<path d="M167.946 134.686C170.437 134.686 172.374 132.797 172.374 130.368C172.374 127.939 170.437 126.05 167.946 126.05C165.456 126.05 163.519 127.939 163.519 130.368C163.519 132.797 165.456 134.686 167.946 134.686Z" fill="#CACACA"/>
<path d="M197.555 163.564C200.046 163.564 201.983 161.675 201.983 159.246C201.983 156.817 200.046 154.928 197.555 154.928C195.065 154.928 193.128 156.817 193.128 159.246C193.128 161.675 195.065 163.564 197.555 163.564Z" fill="#CACACA"/>
<path d="M167.946 163.564C170.437 163.564 172.374 161.675 172.374 159.246C172.374 156.817 170.437 154.928 167.946 154.928C165.456 154.928 163.519 156.817 163.519 159.246C163.519 161.675 165.456 163.564 167.946 163.564Z" fill="#CACACA"/>
<path d="M212.493 120.112C212.493 120.112 214.707 119.572 215.537 118.762C216.367 117.953 216.921 116.873 216.921 115.794C216.921 115.254 216.921 114.714 216.644 114.175C216.644 113.635 216.091 113.095 215.814 112.825C214.984 112.015 213.877 111.476 212.77 111.476C211.663 111.476 210.556 112.015 209.726 112.825C209.449 113.095 208.896 113.635 208.896 114.175C208.896 114.714 208.619 115.254 208.619 115.794C208.619 116.873 209.173 117.953 210.003 118.762C210.833 119.572 211.94 120.112 213.047 120.112H212.493Z" fill="#CACACA"/>
<path d="M212.498 149.258C212.498 149.258 214.711 148.719 215.542 147.909C216.372 147.099 216.925 146.02 216.925 144.94C216.925 143.861 216.372 142.781 215.542 141.972C214.711 141.162 213.605 140.622 212.498 140.622C211.391 140.622 210.284 141.162 209.454 141.972C208.624 142.781 208.07 143.861 208.07 144.94C208.07 146.02 208.624 147.099 209.454 147.909C210.284 148.719 211.391 149.258 212.498 149.258Z" fill="#CACACA"/>
<path d="M242.378 236.162C244.868 236.162 246.805 234.272 246.805 231.843C246.805 229.414 244.868 227.525 242.378 227.525C239.887 227.525 237.95 229.414 237.95 231.843C237.95 234.272 239.887 236.162 242.378 236.162Z" fill="#CACACA"/>
<path d="M242.378 265.306C244.868 265.306 246.805 263.417 246.805 260.988C246.805 258.559 244.868 256.67 242.378 256.67C239.887 256.67 237.95 258.559 237.95 260.988C237.95 263.417 239.887 265.306 242.378 265.306Z" fill="#CACACA"/>
<path d="M257.046 250.734C259.491 250.734 261.473 248.8 261.473 246.416C261.473 244.031 259.491 242.098 257.046 242.098C254.6 242.098 252.618 244.031 252.618 246.416C252.618 248.8 254.6 250.734 257.046 250.734Z" fill="#CACACA"/>
<path d="M227.435 250.734C229.926 250.734 231.863 248.845 231.863 246.416C231.863 243.987 229.926 242.098 227.435 242.098C224.945 242.098 223.008 243.987 223.008 246.416C223.008 248.845 224.945 250.734 227.435 250.734Z" fill="#CACACA"/>
<path d="M271.992 236.162C271.992 236.162 274.206 235.622 275.036 234.812C275.866 234.002 276.419 232.923 276.419 231.843C276.419 230.764 275.866 229.685 275.036 228.875C274.206 228.065 273.099 227.525 271.992 227.525C270.885 227.525 269.778 228.065 268.948 228.875C268.118 229.685 267.564 230.764 267.564 231.843C267.564 232.923 268.118 234.002 268.948 234.812C269.778 235.622 270.885 236.162 271.992 236.162Z" fill="#CACACA"/>
<path d="M271.992 265.307C271.992 265.307 274.206 264.767 275.036 263.958C275.866 263.148 276.419 262.068 276.419 260.989C276.419 259.909 275.866 258.83 275.036 258.02C274.206 257.211 273.099 256.671 271.992 256.671C270.885 256.671 269.778 257.211 268.948 258.02C268.118 258.83 267.564 259.909 267.564 260.989C267.564 262.068 268.118 263.148 268.948 263.958C269.778 264.767 270.885 265.307 271.992 265.307Z" fill="#CACACA"/>
<path d="M242.378 178.136C244.868 178.136 246.805 176.247 246.805 173.818C246.805 173.278 246.805 172.739 246.529 172.199C245.975 170.579 244.315 169.5 242.378 169.5C240.441 169.5 239.057 170.579 238.227 172.199C238.227 172.739 237.95 173.278 237.95 173.818C237.95 176.247 239.887 178.136 242.378 178.136Z" fill="#CACACA"/>
<path d="M242.378 207.283C244.868 207.283 246.805 205.393 246.805 202.964C246.805 200.536 244.868 198.646 242.378 198.646C239.887 198.646 237.95 200.536 237.95 202.964C237.95 205.393 239.887 207.283 242.378 207.283Z" fill="#CACACA"/>
<path d="M257.046 192.71C259.491 192.71 261.473 190.777 261.473 188.392C261.473 186.008 259.491 184.074 257.046 184.074C254.6 184.074 252.618 186.008 252.618 188.392C252.618 190.777 254.6 192.71 257.046 192.71Z" fill="#CACACA"/>
<path d="M227.435 192.71C229.926 192.71 231.863 190.821 231.863 188.392C231.863 185.963 229.926 184.074 227.435 184.074C224.945 184.074 223.008 185.963 223.008 188.392C223.008 190.821 224.945 192.71 227.435 192.71Z" fill="#CACACA"/>
<path d="M257.046 221.586C259.491 221.586 261.473 219.653 261.473 217.268C261.473 214.884 259.491 212.95 257.046 212.95C254.6 212.95 252.618 214.884 252.618 217.268C252.618 219.653 254.6 221.586 257.046 221.586Z" fill="#CACACA"/>
<path d="M227.435 221.586C229.926 221.586 231.863 219.697 231.863 217.268C231.863 214.839 229.926 212.95 227.435 212.95C224.945 212.95 223.008 214.839 223.008 217.268C223.008 219.697 224.945 221.586 227.435 221.586Z" fill="#CACACA"/>
<path d="M271.991 178.136C271.991 178.136 274.205 177.596 275.035 176.787C275.865 175.977 276.419 174.898 276.419 173.818C276.419 173.278 276.419 172.739 276.142 172.199C276.142 171.659 275.589 171.119 275.312 170.849C274.482 170.04 273.375 169.5 272.268 169.5C271.161 169.5 270.054 170.04 269.224 170.849C268.947 171.119 268.394 171.659 268.394 172.199C268.394 172.739 268.117 173.278 268.117 173.818C268.117 174.898 268.671 175.977 269.501 176.787C270.331 177.596 271.438 178.136 272.545 178.136H271.991Z" fill="#CACACA"/>
<path d="M271.992 207.284C271.992 207.284 274.206 206.744 275.036 205.934C275.866 205.124 276.419 204.045 276.419 202.965C276.419 201.886 275.866 200.806 275.036 199.997C274.206 199.187 273.099 198.647 271.992 198.647C270.885 198.647 269.778 199.187 268.948 199.997C268.118 200.806 267.564 201.886 267.564 202.965C267.564 204.045 268.118 205.124 268.948 205.934C269.778 206.744 270.885 207.284 271.992 207.284Z" fill="#CACACA"/>
<path d="M242.378 120.112C244.868 120.112 246.805 118.223 246.805 115.794C246.805 115.254 246.805 114.714 246.529 114.175C245.975 112.555 244.315 111.476 242.378 111.476C240.441 111.476 239.057 112.555 238.227 114.175C238.227 114.714 237.95 115.254 237.95 115.794C237.95 118.223 239.887 120.112 242.378 120.112Z" fill="#CACACA"/>
<path d="M242.378 149.258C244.868 149.258 246.805 147.369 246.805 144.94C246.805 142.511 244.868 140.622 242.378 140.622C239.887 140.622 237.95 142.511 237.95 144.94C237.95 147.369 239.887 149.258 242.378 149.258Z" fill="#CACACA"/>
<path d="M257.046 134.686C259.491 134.686 261.473 132.753 261.473 130.368C261.473 127.983 259.491 126.05 257.046 126.05C254.6 126.05 252.618 127.983 252.618 130.368C252.618 132.753 254.6 134.686 257.046 134.686Z" fill="#CACACA"/>
<path d="M227.435 134.686C229.926 134.686 231.863 132.797 231.863 130.368C231.863 127.939 229.926 126.05 227.435 126.05C224.945 126.05 223.008 127.939 223.008 130.368C223.008 132.797 224.945 134.686 227.435 134.686Z" fill="#CACACA"/>
<path d="M257.046 163.564C259.536 163.564 261.473 161.675 261.473 159.246C261.473 156.817 259.536 154.928 257.046 154.928C254.555 154.928 252.618 156.817 252.618 159.246C252.618 161.675 254.555 163.564 257.046 163.564Z" fill="#CACACA"/>
<path d="M227.435 163.564C229.926 163.564 231.863 161.675 231.863 159.246C231.863 156.817 229.926 154.928 227.435 154.928C224.945 154.928 223.008 156.817 223.008 159.246C223.008 161.675 224.945 163.564 227.435 163.564Z" fill="#CACACA"/>
<path d="M271.991 120.112C271.991 120.112 274.205 119.572 275.035 118.762C275.865 117.953 276.419 116.873 276.419 115.794C276.419 115.254 276.419 114.714 276.142 114.175C276.142 113.635 275.589 113.095 275.312 112.825C274.482 112.015 273.375 111.476 272.268 111.476C271.161 111.476 270.054 112.015 269.224 112.825C268.947 113.095 268.394 113.635 268.394 114.175C268.394 114.714 268.117 115.254 268.117 115.794C268.117 116.873 268.671 117.953 269.501 118.762C270.331 119.572 271.438 120.112 272.545 120.112H271.991Z" fill="#CACACA"/>
<path d="M271.992 149.258C271.992 149.258 274.206 148.719 275.036 147.909C275.866 147.099 276.419 146.02 276.419 144.94C276.419 143.861 275.866 142.781 275.036 141.972C274.206 141.162 273.099 140.622 271.992 140.622C270.885 140.622 269.778 141.162 268.948 141.972C268.118 142.781 267.564 143.861 267.564 144.94C267.564 146.02 268.118 147.099 268.948 147.909C269.778 148.719 270.885 149.258 271.992 149.258Z" fill="#CACACA"/>
<path d="M301.876 236.162C304.366 236.162 306.303 234.272 306.303 231.843C306.303 229.414 304.366 227.525 301.876 227.525C299.385 227.525 297.448 229.414 297.448 231.843C297.448 234.272 299.385 236.162 301.876 236.162Z" fill="#CACACA"/>
<path d="M301.876 265.307C304.366 265.307 306.303 263.418 306.303 260.989C306.303 258.56 304.366 256.671 301.876 256.671C299.385 256.671 297.448 258.56 297.448 260.989C297.448 263.418 299.385 265.307 301.876 265.307Z" fill="#CACACA"/>
<path d="M316.544 250.734C318.989 250.734 320.971 248.8 320.971 246.416C320.971 244.031 318.989 242.098 316.544 242.098C314.098 242.098 312.116 244.031 312.116 246.416C312.116 248.8 314.098 250.734 316.544 250.734Z" fill="#CACACA"/>
<path d="M286.934 250.734C289.425 250.734 291.362 248.845 291.362 246.416C291.362 243.987 289.425 242.098 286.934 242.098C284.444 242.098 282.507 243.987 282.507 246.416C282.507 248.845 284.444 250.734 286.934 250.734Z" fill="#CACACA"/>
<path d="M331.481 236.162C333.972 236.162 335.909 234.272 335.909 231.843C335.909 229.414 333.972 227.525 331.481 227.525C330.374 227.525 329.267 228.065 328.437 228.875C327.607 229.685 327.054 230.764 327.054 231.843C327.054 232.923 327.607 234.002 328.437 234.812C329.267 235.622 330.374 236.162 331.481 236.162Z" fill="#CACACA"/>
<path d="M331.481 265.307C333.972 265.307 335.909 263.418 335.909 260.989C335.909 258.56 333.972 256.671 331.481 256.671C330.374 256.671 329.267 257.211 328.437 258.02C327.607 258.83 327.054 259.909 327.054 260.989C327.054 262.068 327.607 263.148 328.437 263.958C329.267 264.767 330.374 265.307 331.481 265.307Z" fill="#CACACA"/>
<path d="M301.876 178.136C304.366 178.136 306.303 176.247 306.303 173.818C306.303 173.278 306.303 172.739 306.026 172.199C305.473 170.579 303.813 169.5 301.876 169.5C299.939 169.5 298.555 170.579 297.725 172.199C297.725 172.739 297.448 173.278 297.448 173.818C297.448 176.247 299.385 178.136 301.876 178.136Z" fill="#CACACA"/>
<path d="M301.876 207.284C304.366 207.284 306.303 205.394 306.303 202.965C306.303 200.537 304.366 198.647 301.876 198.647C299.385 198.647 297.448 200.537 297.448 202.965C297.448 205.394 299.385 207.284 301.876 207.284Z" fill="#CACACA"/>
<path d="M316.544 192.71C318.989 192.71 320.971 190.777 320.971 188.392C320.971 186.008 318.989 184.074 316.544 184.074C314.098 184.074 312.116 186.008 312.116 188.392C312.116 190.777 314.098 192.71 316.544 192.71Z" fill="#CACACA"/>
<path d="M286.934 192.71C289.425 192.71 291.362 190.821 291.362 188.392C291.362 185.963 289.425 184.074 286.934 184.074C284.444 184.074 282.507 185.963 282.507 188.392C282.507 190.821 284.444 192.71 286.934 192.71Z" fill="#CACACA"/>
<path d="M316.544 221.586C318.989 221.586 320.971 219.653 320.971 217.268C320.971 214.884 318.989 212.95 316.544 212.95C314.098 212.95 312.116 214.884 312.116 217.268C312.116 219.653 314.098 221.586 316.544 221.586Z" fill="#CACACA"/>
<path d="M286.934 221.586C289.425 221.586 291.362 219.697 291.362 217.268C291.362 214.839 289.425 212.95 286.934 212.95C284.444 212.95 282.507 214.839 282.507 217.268C282.507 219.697 284.444 221.586 286.934 221.586Z" fill="#CACACA"/>
<path d="M331.484 178.136C333.974 178.136 335.911 176.247 335.911 173.818C335.911 173.278 335.911 172.739 335.635 172.199C335.081 170.579 333.421 169.5 331.484 169.5C330.377 169.5 329.27 170.04 328.44 170.849C328.163 171.119 327.61 171.659 327.61 172.199C327.61 172.739 327.333 173.278 327.333 173.818C327.333 174.898 327.886 175.977 328.717 176.787C329.547 177.596 330.654 178.136 331.761 178.136H331.484Z" fill="#CACACA"/>
<path d="M331.481 207.284C333.972 207.284 335.909 205.394 335.909 202.965C335.909 200.537 333.972 198.647 331.481 198.647C330.374 198.647 329.267 199.187 328.437 199.997C327.607 200.806 327.054 201.886 327.054 202.965C327.054 204.045 327.607 205.124 328.437 205.934C329.267 206.744 330.374 207.284 331.481 207.284Z" fill="#CACACA"/>
<path d="M301.876 120.112C304.366 120.112 306.303 118.223 306.303 115.794C306.303 115.254 306.303 114.714 306.026 114.175C305.473 112.555 303.813 111.476 301.876 111.476C299.939 111.476 298.555 112.555 297.725 114.175C297.725 114.714 297.448 115.254 297.448 115.794C297.448 118.223 299.385 120.112 301.876 120.112Z" fill="#CACACA"/>
<path d="M301.876 149.258C304.366 149.258 306.303 147.369 306.303 144.94C306.303 142.511 304.366 140.622 301.876 140.622C299.385 140.622 297.448 142.511 297.448 144.94C297.448 147.369 299.385 149.258 301.876 149.258Z" fill="#CACACA"/>
<path d="M316.544 134.686C318.989 134.686 320.971 132.753 320.971 130.368C320.971 127.983 318.989 126.05 316.544 126.05C314.098 126.05 312.116 127.983 312.116 130.368C312.116 132.753 314.098 134.686 316.544 134.686Z" fill="#CACACA"/>
<path d="M286.934 134.686C289.425 134.686 291.362 132.797 291.362 130.368C291.362 127.939 289.425 126.05 286.934 126.05C284.444 126.05 282.507 127.939 282.507 130.368C282.507 132.797 284.444 134.686 286.934 134.686Z" fill="#CACACA"/>
<path d="M316.544 163.564C319.034 163.564 320.971 161.675 320.971 159.246C320.971 156.817 319.034 154.928 316.544 154.928C314.053 154.928 312.116 156.817 312.116 159.246C312.116 161.675 314.053 163.564 316.544 163.564Z" fill="#CACACA"/>
<path d="M286.934 163.564C289.425 163.564 291.362 161.675 291.362 159.246C291.362 156.817 289.425 154.928 286.934 154.928C284.444 154.928 282.507 156.817 282.507 159.246C282.507 161.675 284.444 163.564 286.934 163.564Z" fill="#CACACA"/>
<path d="M331.484 120.112C333.974 120.112 335.911 118.223 335.911 115.794C335.911 115.254 335.911 114.714 335.635 114.175C335.081 112.555 333.421 111.476 331.484 111.476C330.377 111.476 329.27 112.015 328.44 112.825C328.163 113.095 327.61 113.635 327.61 114.175C327.61 114.714 327.333 115.254 327.333 115.794C327.333 116.873 327.886 117.953 328.717 118.762C329.547 119.572 330.654 120.112 331.761 120.112H331.484Z" fill="#CACACA"/>
<path d="M331.481 149.258C333.972 149.258 335.909 147.369 335.909 144.94C335.909 142.511 333.972 140.622 331.481 140.622C330.374 140.622 329.267 141.162 328.437 141.972C327.607 142.781 327.054 143.861 327.054 144.94C327.054 146.02 327.607 147.099 328.437 147.909C329.267 148.719 330.374 149.258 331.481 149.258Z" fill="#CACACA"/>
<path d="M361.37 236.162C363.86 236.162 365.797 234.272 365.797 231.843C365.797 229.414 363.86 227.525 361.37 227.525C358.879 227.525 356.942 229.414 356.942 231.843C356.942 234.272 358.879 236.162 361.37 236.162Z" fill="#CACACA"/>
<path d="M361.37 265.306C363.86 265.306 365.797 263.417 365.797 260.988C365.797 258.559 363.86 256.67 361.37 256.67C358.879 256.67 356.942 258.559 356.942 260.988C356.942 263.417 358.879 265.306 361.37 265.306Z" fill="#CACACA"/>
<path d="M376.312 250.734C378.803 250.734 380.74 248.845 380.74 246.416C380.74 243.987 378.803 242.098 376.312 242.098C373.822 242.098 371.885 243.987 371.885 246.416C371.885 248.845 373.822 250.734 376.312 250.734Z" fill="#CACACA"/>
<path d="M346.429 250.734C348.919 250.734 350.856 248.845 350.856 246.416C350.856 243.987 348.919 242.098 346.429 242.098C343.938 242.098 342.001 243.987 342.001 246.416C342.001 248.845 343.938 250.734 346.429 250.734Z" fill="#CACACA"/>
<path d="M390.98 236.162C390.98 236.162 392.087 236.161 392.641 235.892C394.301 235.352 395.408 233.733 395.408 231.843C395.408 229.954 394.301 228.605 392.641 227.795C392.087 227.795 391.534 227.525 390.98 227.525C388.49 227.525 386.553 229.414 386.553 231.843C386.553 234.272 388.49 236.162 390.98 236.162Z" fill="#CACACA"/>
<path d="M390.98 265.306C390.98 265.306 392.087 265.306 392.641 265.036C394.301 264.496 395.408 262.877 395.408 260.988C395.408 259.099 394.301 257.749 392.641 256.94C392.087 256.94 391.534 256.67 390.98 256.67C388.49 256.67 386.553 258.559 386.553 260.988C386.553 263.417 388.49 265.306 390.98 265.306Z" fill="#CACACA"/>
<path d="M361.37 178.136C363.86 178.136 365.797 176.247 365.797 173.818C365.797 173.278 365.797 172.739 365.521 172.199C364.967 170.579 363.307 169.5 361.37 169.5C359.433 169.5 358.049 170.579 357.219 172.199C357.219 172.739 356.942 173.278 356.942 173.818C356.942 176.247 358.879 178.136 361.37 178.136Z" fill="#CACACA"/>
<path d="M361.37 207.283C363.86 207.283 365.797 205.393 365.797 202.964C365.797 200.536 363.86 198.646 361.37 198.646C358.879 198.646 356.942 200.536 356.942 202.964C356.942 205.393 358.879 207.283 361.37 207.283Z" fill="#CACACA"/>
<path d="M376.312 192.71C378.803 192.71 380.74 190.821 380.74 188.392C380.74 185.963 378.803 184.074 376.312 184.074C373.822 184.074 371.885 185.963 371.885 188.392C371.885 190.821 373.822 192.71 376.312 192.71Z" fill="#CACACA"/>
<path d="M346.429 192.71C348.919 192.71 350.856 190.821 350.856 188.392C350.856 185.963 348.919 184.074 346.429 184.074C343.938 184.074 342.001 185.963 342.001 188.392C342.001 190.821 343.938 192.71 346.429 192.71Z" fill="#CACACA"/>
<path d="M376.312 221.586C378.803 221.586 380.74 219.697 380.74 217.268C380.74 214.839 378.803 212.95 376.312 212.95C373.822 212.95 371.885 214.839 371.885 217.268C371.885 219.697 373.822 221.586 376.312 221.586Z" fill="#CACACA"/>
<path d="M346.429 221.586C348.919 221.586 350.856 219.697 350.856 217.268C350.856 214.839 348.919 212.95 346.429 212.95C343.938 212.95 342.001 214.839 342.001 217.268C342.001 219.697 343.938 221.586 346.429 221.586Z" fill="#CACACA"/>
<path d="M390.98 178.136C390.98 178.136 392.087 178.136 392.641 177.866C394.301 177.326 395.408 175.707 395.408 173.818C395.408 173.278 395.408 172.739 395.131 172.199C394.578 171.119 393.747 170.31 392.641 169.77C392.087 169.77 391.534 169.5 390.98 169.5C389.043 169.5 387.66 170.579 386.83 172.199C386.83 172.739 386.553 173.278 386.553 173.818C386.553 176.247 388.49 178.136 390.98 178.136Z" fill="#CACACA"/>
<path d="M390.98 207.283C390.98 207.283 392.087 207.283 392.641 207.013C394.301 206.473 395.408 204.854 395.408 202.964C395.408 201.075 394.301 199.726 392.641 198.916C392.087 198.916 391.534 198.646 390.98 198.646C388.49 198.646 386.553 200.536 386.553 202.964C386.553 205.393 388.49 207.283 390.98 207.283Z" fill="#CACACA"/>
<path d="M361.37 120.112C363.86 120.112 365.797 118.223 365.797 115.794C365.797 115.254 365.797 114.714 365.521 114.175C364.967 112.555 363.307 111.476 361.37 111.476C359.433 111.476 358.049 112.555 357.219 114.175C357.219 114.714 356.942 115.254 356.942 115.794C356.942 118.223 358.879 120.112 361.37 120.112Z" fill="#CACACA"/>
<path d="M361.37 149.258C363.86 149.258 365.797 147.369 365.797 144.94C365.797 142.511 363.86 140.622 361.37 140.622C358.879 140.622 356.942 142.511 356.942 144.94C356.942 147.369 358.879 149.258 361.37 149.258Z" fill="#CACACA"/>
<path d="M376.312 134.686C378.803 134.686 380.74 132.797 380.74 130.368C380.74 127.939 378.803 126.05 376.312 126.05C373.822 126.05 371.885 127.939 371.885 130.368C371.885 132.797 373.822 134.686 376.312 134.686Z" fill="#CACACA"/>
<path d="M346.429 134.686C348.919 134.686 350.856 132.797 350.856 130.368C350.856 127.939 348.919 126.05 346.429 126.05C343.938 126.05 342.001 127.939 342.001 130.368C342.001 132.797 343.938 134.686 346.429 134.686Z" fill="#CACACA"/>
<path d="M376.312 163.564C378.803 163.564 380.74 161.675 380.74 159.246C380.74 156.817 378.803 154.928 376.312 154.928C373.822 154.928 371.885 156.817 371.885 159.246C371.885 161.675 373.822 163.564 376.312 163.564Z" fill="#CACACA"/>
<path d="M346.429 163.564C348.919 163.564 350.856 161.675 350.856 159.246C350.856 156.817 348.919 154.928 346.429 154.928C343.938 154.928 342.001 156.817 342.001 159.246C342.001 161.675 343.938 163.564 346.429 163.564Z" fill="#CACACA"/>
<path d="M390.98 120.112C390.98 120.112 392.087 120.112 392.641 119.842C394.301 119.302 395.408 117.683 395.408 115.794C395.408 115.254 395.408 114.714 395.131 114.175C394.578 113.095 393.747 112.285 392.641 111.746C392.087 111.746 391.534 111.476 390.98 111.476C389.043 111.476 387.66 112.555 386.83 114.175C386.83 114.714 386.553 115.254 386.553 115.794C386.553 118.223 388.49 120.112 390.98 120.112Z" fill="#CACACA"/>
<path d="M390.98 149.258C390.98 149.258 392.087 149.258 392.641 148.988C394.301 148.448 395.408 146.829 395.408 144.94C395.408 143.051 394.301 141.702 392.641 140.892C392.087 140.892 391.534 140.622 390.98 140.622C388.49 140.622 386.553 142.511 386.553 144.94C386.553 147.369 388.49 149.258 390.98 149.258Z" fill="#CACACA"/>
<path d="M420.86 236.162C423.351 236.162 425.288 234.272 425.288 231.843C425.288 229.414 423.351 227.525 420.86 227.525C418.37 227.525 416.433 229.414 416.433 231.843C416.433 234.272 418.37 236.162 420.86 236.162Z" fill="#CACACA"/>
<path d="M420.86 265.306C423.351 265.306 425.288 263.417 425.288 260.988C425.288 258.559 423.351 256.67 420.86 256.67C418.37 256.67 416.433 258.559 416.433 260.988C416.433 263.417 418.37 265.306 420.86 265.306Z" fill="#CACACA"/>
<path d="M435.806 250.734C438.297 250.734 440.234 248.845 440.234 246.416C440.234 243.987 438.297 242.098 435.806 242.098C433.316 242.098 431.379 243.987 431.379 246.416C431.379 248.845 433.316 250.734 435.806 250.734Z" fill="#CACACA"/>
<path d="M405.927 250.734C408.372 250.734 410.354 248.8 410.354 246.416C410.354 244.031 408.372 242.098 405.927 242.098C403.481 242.098 401.499 244.031 401.499 246.416C401.499 248.8 403.481 250.734 405.927 250.734Z" fill="#CACACA"/>
<path d="M450.474 236.162C450.474 236.162 451.581 236.161 452.135 235.892C453.795 235.352 454.902 233.733 454.902 231.843C454.902 229.954 453.795 228.605 452.135 227.795C451.581 227.795 451.028 227.525 450.474 227.525C447.984 227.525 446.047 229.414 446.047 231.843C446.047 234.272 447.984 236.162 450.474 236.162Z" fill="#CACACA"/>
<path d="M450.474 265.307C450.474 265.307 451.581 265.307 452.135 265.037C453.795 264.497 454.902 262.878 454.902 260.989C454.902 259.1 453.795 257.75 452.135 256.941C451.581 256.941 451.028 256.671 450.474 256.671C447.984 256.671 446.047 258.56 446.047 260.989C446.047 263.418 447.984 265.307 450.474 265.307Z" fill="#CACACA"/>
<path d="M420.86 178.136C423.351 178.136 425.288 176.247 425.288 173.818C425.288 173.278 425.288 172.739 425.011 172.199C424.457 170.579 422.797 169.5 420.86 169.5C418.923 169.5 417.539 170.579 416.709 172.199C416.709 172.739 416.433 173.278 416.433 173.818C416.433 176.247 418.37 178.136 420.86 178.136Z" fill="#CACACA"/>
<path d="M420.86 207.283C423.351 207.283 425.288 205.393 425.288 202.964C425.288 200.536 423.351 198.646 420.86 198.646C418.37 198.646 416.433 200.536 416.433 202.964C416.433 205.393 418.37 207.283 420.86 207.283Z" fill="#CACACA"/>
<path d="M435.806 192.71C438.297 192.71 440.234 190.821 440.234 188.392C440.234 185.963 438.297 184.074 435.806 184.074C433.316 184.074 431.379 185.963 431.379 188.392C431.379 190.821 433.316 192.71 435.806 192.71Z" fill="#CACACA"/>
<path d="M405.927 192.71C408.372 192.71 410.354 190.777 410.354 188.392C410.354 186.008 408.372 184.074 405.927 184.074C403.481 184.074 401.499 186.008 401.499 188.392C401.499 190.777 403.481 192.71 405.927 192.71Z" fill="#CACACA"/>
<path d="M435.806 221.586C438.297 221.586 440.234 219.697 440.234 217.268C440.234 214.839 438.297 212.95 435.806 212.95C433.316 212.95 431.379 214.839 431.379 217.268C431.379 219.697 433.316 221.586 435.806 221.586Z" fill="#CACACA"/>
<path d="M405.927 221.586C408.372 221.586 410.354 219.653 410.354 217.268C410.354 214.884 408.372 212.95 405.927 212.95C403.481 212.95 401.499 214.884 401.499 217.268C401.499 219.653 403.481 221.586 405.927 221.586Z" fill="#CACACA"/>
<path d="M450.474 178.136C450.474 178.136 451.581 178.136 452.135 177.866C453.795 177.326 454.902 175.707 454.902 173.818C454.902 173.278 454.902 172.739 454.625 172.199C454.072 171.119 453.242 170.31 452.135 169.77C451.581 169.77 451.028 169.5 450.474 169.5C448.537 169.5 447.154 170.579 446.324 172.199C446.324 172.739 446.047 173.278 446.047 173.818C446.047 176.247 447.984 178.136 450.474 178.136Z" fill="#CACACA"/>
<path d="M450.474 207.284C450.474 207.284 451.581 207.284 452.135 207.014C453.795 206.474 454.902 204.855 454.902 202.965C454.902 201.076 453.795 199.727 452.135 198.917C451.581 198.917 451.028 198.647 450.474 198.647C447.984 198.647 446.047 200.537 446.047 202.965C446.047 205.394 447.984 207.284 450.474 207.284Z" fill="#CACACA"/>
<path d="M420.86 120.112C423.351 120.112 425.288 118.223 425.288 115.794C425.288 115.254 425.288 114.714 425.011 114.175C424.457 112.555 422.797 111.476 420.86 111.476C418.923 111.476 417.539 112.555 416.709 114.175C416.709 114.714 416.433 115.254 416.433 115.794C416.433 118.223 418.37 120.112 420.86 120.112Z" fill="#CACACA"/>
<path d="M420.86 149.258C423.351 149.258 425.288 147.369 425.288 144.94C425.288 142.511 423.351 140.622 420.86 140.622C418.37 140.622 416.433 142.511 416.433 144.94C416.433 147.369 418.37 149.258 420.86 149.258Z" fill="#CACACA"/>
<path d="M435.806 134.686C438.297 134.686 440.234 132.797 440.234 130.368C440.234 127.939 438.297 126.05 435.806 126.05C433.316 126.05 431.379 127.939 431.379 130.368C431.379 132.797 433.316 134.686 435.806 134.686Z" fill="#CACACA"/>
<path d="M405.927 134.686C408.372 134.686 410.354 132.753 410.354 130.368C410.354 127.983 408.372 126.05 405.927 126.05C403.481 126.05 401.499 127.983 401.499 130.368C401.499 132.753 403.481 134.686 405.927 134.686Z" fill="#CACACA"/>
<path d="M435.806 163.564C438.297 163.564 440.234 161.675 440.234 159.246C440.234 156.817 438.297 154.928 435.806 154.928C433.316 154.928 431.379 156.817 431.379 159.246C431.379 161.675 433.316 163.564 435.806 163.564Z" fill="#CACACA"/>
<path d="M405.927 163.564C408.417 163.564 410.354 161.675 410.354 159.246C410.354 156.817 408.417 154.928 405.927 154.928C403.436 154.928 401.499 156.817 401.499 159.246C401.499 161.675 403.436 163.564 405.927 163.564Z" fill="#CACACA"/>
<path d="M450.474 120.112C450.474 120.112 451.581 120.112 452.134 119.842C453.795 119.302 454.902 117.683 454.902 115.794C454.902 115.254 454.902 114.714 454.625 114.175C454.072 113.095 453.241 112.285 452.134 111.746C451.581 111.746 451.028 111.476 450.474 111.476C448.537 111.476 447.153 112.555 446.323 114.175C446.323 114.714 446.047 115.254 446.047 115.794C446.047 118.223 447.984 120.112 450.474 120.112Z" fill="#CACACA"/>
<path d="M450.474 149.258C450.474 149.258 451.581 149.258 452.135 148.988C453.795 148.448 454.902 146.829 454.902 144.94C454.902 143.051 453.795 141.702 452.135 140.892C451.581 140.892 451.028 140.622 450.474 140.622C447.984 140.622 446.047 142.511 446.047 144.94C446.047 147.369 447.984 149.258 450.474 149.258Z" fill="#CACACA"/>
<path d="M480.358 236.162C482.849 236.162 484.786 234.272 484.786 231.843C484.786 229.414 482.849 227.525 480.358 227.525C477.868 227.525 475.931 229.414 475.931 231.843C475.931 234.272 477.868 236.162 480.358 236.162Z" fill="#CACACA"/>
<path d="M480.358 265.307C482.849 265.307 484.786 263.418 484.786 260.989C484.786 258.56 482.849 256.671 480.358 256.671C477.868 256.671 475.931 258.56 475.931 260.989C475.931 263.418 477.868 265.307 480.358 265.307Z" fill="#CACACA"/>
<path d="M495.304 250.734C497.795 250.734 499.732 248.845 499.732 246.416C499.732 243.987 497.795 242.098 495.304 242.098C492.814 242.098 490.877 243.987 490.877 246.416C490.877 248.845 492.814 250.734 495.304 250.734Z" fill="#CACACA"/>
<path d="M465.416 250.734C467.861 250.734 469.843 248.8 469.843 246.416C469.843 244.031 467.861 242.098 465.416 242.098C462.971 242.098 460.988 244.031 460.988 246.416C460.988 248.8 462.971 250.734 465.416 250.734Z" fill="#CACACA"/>
<path d="M510.243 236.162C510.243 236.162 511.35 236.161 511.903 235.892C513.564 235.352 514.671 233.733 514.671 231.843C514.671 229.954 513.564 228.605 511.903 227.795C511.35 227.795 510.796 227.525 510.243 227.525C507.753 227.525 505.815 229.414 505.815 231.843C505.815 234.272 507.753 236.162 510.243 236.162Z" fill="#CACACA"/>
<path d="M510.243 265.306C510.243 265.306 511.35 265.306 511.903 265.036C513.564 264.496 514.671 262.877 514.671 260.988C514.671 259.099 513.564 257.749 511.903 256.94C511.35 256.94 510.796 256.67 510.243 256.67C507.753 256.67 505.815 258.559 505.815 260.988C505.815 263.417 507.753 265.306 510.243 265.306Z" fill="#CACACA"/>
<path d="M480.358 178.136C482.849 178.136 484.786 176.247 484.786 173.818C484.786 173.278 484.786 172.739 484.509 172.199C483.955 170.579 482.295 169.5 480.358 169.5C478.421 169.5 477.037 170.579 476.207 172.199C476.207 172.739 475.931 173.278 475.931 173.818C475.931 176.247 477.868 178.136 480.358 178.136Z" fill="#CACACA"/>
<path d="M480.358 207.284C482.849 207.284 484.786 205.394 484.786 202.965C484.786 200.537 482.849 198.647 480.358 198.647C477.868 198.647 475.931 200.537 475.931 202.965C475.931 205.394 477.868 207.284 480.358 207.284Z" fill="#CACACA"/>
<path d="M495.304 192.71C497.795 192.71 499.732 190.821 499.732 188.392C499.732 185.963 497.795 184.074 495.304 184.074C492.814 184.074 490.877 185.963 490.877 188.392C490.877 190.821 492.814 192.71 495.304 192.71Z" fill="#CACACA"/>
<path d="M465.416 192.71C467.861 192.71 469.843 190.777 469.843 188.392C469.843 186.008 467.861 184.074 465.416 184.074C462.971 184.074 460.988 186.008 460.988 188.392C460.988 190.777 462.971 192.71 465.416 192.71Z" fill="#CACACA"/>
<path d="M495.304 221.586C497.795 221.586 499.732 219.697 499.732 217.268C499.732 214.839 497.795 212.95 495.304 212.95C492.814 212.95 490.877 214.839 490.877 217.268C490.877 219.697 492.814 221.586 495.304 221.586Z" fill="#CACACA"/>
<path d="M465.416 221.586C467.861 221.586 469.843 219.653 469.843 217.268C469.843 214.884 467.861 212.95 465.416 212.95C462.971 212.95 460.988 214.884 460.988 217.268C460.988 219.653 462.971 221.586 465.416 221.586Z" fill="#CACACA"/>
<path d="M510.243 178.136C510.243 178.136 511.35 178.136 511.903 177.866C513.564 177.326 514.671 175.707 514.671 173.818C514.671 173.278 514.671 172.739 514.394 172.199C513.84 171.119 513.01 170.31 511.903 169.77C511.35 169.77 510.796 169.5 510.243 169.5C508.306 169.5 506.922 170.579 506.092 172.199C506.092 172.739 505.815 173.278 505.815 173.818C505.815 176.247 507.753 178.136 510.243 178.136Z" fill="#CACACA"/>
<path d="M510.243 207.283C510.243 207.283 511.35 207.283 511.903 207.013C513.564 206.473 514.671 204.854 514.671 202.964C514.671 201.075 513.564 199.726 511.903 198.916C511.35 198.916 510.796 198.646 510.243 198.646C507.753 198.646 505.815 200.536 505.815 202.964C505.815 205.393 507.753 207.283 510.243 207.283Z" fill="#CACACA"/>
<path d="M480.358 120.112C482.849 120.112 484.786 118.223 484.786 115.794C484.786 115.254 484.786 114.714 484.509 114.175C483.955 112.555 482.295 111.476 480.358 111.476C478.421 111.476 477.037 112.555 476.207 114.175C476.207 114.714 475.931 115.254 475.931 115.794C475.931 118.223 477.868 120.112 480.358 120.112Z" fill="#CACACA"/>
<path d="M480.358 149.258C482.849 149.258 484.786 147.369 484.786 144.94C484.786 142.511 482.849 140.622 480.358 140.622C477.868 140.622 475.931 142.511 475.931 144.94C475.931 147.369 477.868 149.258 480.358 149.258Z" fill="#CACACA"/>
<path d="M495.304 134.686C497.795 134.686 499.732 132.797 499.732 130.368C499.732 127.939 497.795 126.05 495.304 126.05C492.814 126.05 490.877 127.939 490.877 130.368C490.877 132.797 492.814 134.686 495.304 134.686Z" fill="#CACACA"/>
<path d="M465.416 134.686C467.861 134.686 469.843 132.753 469.843 130.368C469.843 127.983 467.861 126.05 465.416 126.05C462.971 126.05 460.988 127.983 460.988 130.368C460.988 132.753 462.971 134.686 465.416 134.686Z" fill="#CACACA"/>
<path d="M495.304 163.564C497.795 163.564 499.732 161.675 499.732 159.246C499.732 156.817 497.795 154.928 495.304 154.928C492.814 154.928 490.877 156.817 490.877 159.246C490.877 161.675 492.814 163.564 495.304 163.564Z" fill="#CACACA"/>
<path d="M465.416 163.564C467.906 163.564 469.843 161.675 469.843 159.246C469.843 156.817 467.906 154.928 465.416 154.928C462.925 154.928 460.988 156.817 460.988 159.246C460.988 161.675 462.925 163.564 465.416 163.564Z" fill="#CACACA"/>
<path d="M510.243 120.112C510.243 120.112 511.35 120.112 511.903 119.842C513.564 119.302 514.671 117.683 514.671 115.794C514.671 115.254 514.671 114.714 514.394 114.175C513.84 113.095 513.01 112.285 511.903 111.746C511.35 111.746 510.796 111.476 510.243 111.476C508.306 111.476 506.922 112.555 506.092 114.175C506.092 114.714 505.815 115.254 505.815 115.794C505.815 118.223 507.753 120.112 510.243 120.112Z" fill="#CACACA"/>
<path d="M510.243 149.258C510.243 149.258 511.35 149.258 511.903 148.988C513.564 148.448 514.671 146.829 514.671 144.94C514.671 143.051 513.564 141.702 511.903 140.892C511.35 140.892 510.796 140.622 510.243 140.622C507.753 140.622 505.815 142.511 505.815 144.94C505.815 147.369 507.753 149.258 510.243 149.258Z" fill="#CACACA"/>
<path d="M539.852 236.162C542.343 236.162 544.28 234.272 544.28 231.843C544.28 229.414 542.343 227.525 539.852 227.525C537.362 227.525 535.425 229.414 535.425 231.843C535.425 234.272 537.362 236.162 539.852 236.162Z" fill="#CACACA"/>
<path d="M539.852 265.307C542.343 265.307 544.28 263.418 544.28 260.989C544.28 258.56 542.343 256.671 539.852 256.671C537.362 256.671 535.425 258.56 535.425 260.989C535.425 263.418 537.362 265.307 539.852 265.307Z" fill="#CACACA"/>
<path d="M554.795 250.734C557.285 250.734 559.222 248.845 559.222 246.416C559.222 243.987 557.285 242.098 554.795 242.098C552.304 242.098 550.367 243.987 550.367 246.416C550.367 248.845 552.304 250.734 554.795 250.734Z" fill="#CACACA"/>
<path d="M524.91 250.734C527.4 250.734 529.337 248.845 529.337 246.416C529.337 243.987 527.4 242.098 524.91 242.098C522.419 242.098 520.482 243.987 520.482 246.416C520.482 248.845 522.419 250.734 524.91 250.734Z" fill="#CACACA"/>
<path d="M569.741 236.162C569.741 236.162 570.848 236.161 571.401 235.892C573.062 235.352 574.168 233.733 574.168 231.843C574.168 229.954 573.062 228.605 571.401 227.795C570.848 227.795 570.295 227.525 569.741 227.525C567.251 227.525 565.313 229.414 565.313 231.843C565.313 234.272 567.251 236.162 569.741 236.162Z" fill="#CACACA"/>
<path d="M569.741 265.307C569.741 265.307 570.848 265.307 571.401 265.037C573.062 264.497 574.168 262.878 574.168 260.989C574.168 259.1 573.062 257.75 571.401 256.941C570.848 256.941 570.295 256.671 569.741 256.671C567.251 256.671 565.313 258.56 565.313 260.989C565.313 263.418 567.251 265.307 569.741 265.307Z" fill="#CACACA"/>
<path d="M539.852 178.136C542.343 178.136 544.28 176.247 544.28 173.818C544.28 173.278 544.28 172.739 544.003 172.199C543.45 170.579 541.789 169.5 539.852 169.5C537.915 169.5 536.532 170.579 535.701 172.199C535.701 172.739 535.425 173.278 535.425 173.818C535.425 176.247 537.362 178.136 539.852 178.136Z" fill="#CACACA"/>
<path d="M539.852 207.284C542.343 207.284 544.28 205.394 544.28 202.965C544.28 200.537 542.343 198.647 539.852 198.647C537.362 198.647 535.425 200.537 535.425 202.965C535.425 205.394 537.362 207.284 539.852 207.284Z" fill="#CACACA"/>
<path d="M554.795 192.71C557.285 192.71 559.222 190.821 559.222 188.392C559.222 185.963 557.285 184.074 554.795 184.074C552.304 184.074 550.367 185.963 550.367 188.392C550.367 190.821 552.304 192.71 554.795 192.71Z" fill="#CACACA"/>
<path d="M524.91 192.71C527.4 192.71 529.337 190.821 529.337 188.392C529.337 185.963 527.4 184.074 524.91 184.074C522.419 184.074 520.482 185.963 520.482 188.392C520.482 190.821 522.419 192.71 524.91 192.71Z" fill="#CACACA"/>
<path d="M554.795 221.586C557.285 221.586 559.222 219.697 559.222 217.268C559.222 214.839 557.285 212.95 554.795 212.95C552.304 212.95 550.367 214.839 550.367 217.268C550.367 219.697 552.304 221.586 554.795 221.586Z" fill="#CACACA"/>
<path d="M524.91 221.586C527.4 221.586 529.337 219.697 529.337 217.268C529.337 214.839 527.4 212.95 524.91 212.95C522.419 212.95 520.482 214.839 520.482 217.268C520.482 219.697 522.419 221.586 524.91 221.586Z" fill="#CACACA"/>
<path d="M569.741 178.136C569.741 178.136 570.848 178.136 571.401 177.866C573.062 177.326 574.168 175.707 574.168 173.818C574.168 173.278 574.169 172.739 573.892 172.199C573.338 171.119 572.508 170.31 571.401 169.77C570.848 169.77 570.295 169.5 569.741 169.5C567.804 169.5 566.42 170.579 565.59 172.199C565.59 172.739 565.313 173.278 565.313 173.818C565.313 176.247 567.251 178.136 569.741 178.136Z" fill="#CACACA"/>
<path d="M569.741 207.284C569.741 207.284 570.848 207.284 571.401 207.014C573.062 206.474 574.168 204.855 574.168 202.965C574.168 201.076 573.062 199.727 571.401 198.917C570.848 198.917 570.295 198.647 569.741 198.647C567.251 198.647 565.313 200.537 565.313 202.965C565.313 205.394 567.251 207.284 569.741 207.284Z" fill="#CACACA"/>
<path d="M539.852 120.112C542.343 120.112 544.28 118.223 544.28 115.794C544.28 115.254 544.28 114.714 544.003 114.175C543.45 112.555 541.789 111.476 539.852 111.476C537.915 111.476 536.532 112.555 535.701 114.175C535.701 114.714 535.425 115.254 535.425 115.794C535.425 118.223 537.362 120.112 539.852 120.112Z" fill="#CACACA"/>
<path d="M539.852 149.258C542.343 149.258 544.28 147.369 544.28 144.94C544.28 142.511 542.343 140.622 539.852 140.622C537.362 140.622 535.425 142.511 535.425 144.94C535.425 147.369 537.362 149.258 539.852 149.258Z" fill="#CACACA"/>
<path d="M554.795 134.686C557.285 134.686 559.222 132.797 559.222 130.368C559.222 127.939 557.285 126.05 554.795 126.05C552.304 126.05 550.367 127.939 550.367 130.368C550.367 132.797 552.304 134.686 554.795 134.686Z" fill="#CACACA"/>
<path d="M524.91 134.686C527.4 134.686 529.337 132.797 529.337 130.368C529.337 127.939 527.4 126.05 524.91 126.05C522.419 126.05 520.482 127.939 520.482 130.368C520.482 132.797 522.419 134.686 524.91 134.686Z" fill="#CACACA"/>
<path d="M554.795 163.564C557.285 163.564 559.222 161.675 559.222 159.246C559.222 156.817 557.285 154.928 554.795 154.928C552.304 154.928 550.367 156.817 550.367 159.246C550.367 161.675 552.304 163.564 554.795 163.564Z" fill="#CACACA"/>
<path d="M524.91 163.564C527.4 163.564 529.337 161.675 529.337 159.246C529.337 156.817 527.4 154.928 524.91 154.928C522.419 154.928 520.482 156.817 520.482 159.246C520.482 161.675 522.419 163.564 524.91 163.564Z" fill="#CACACA"/>
<path d="M569.741 120.112C569.741 120.112 570.848 120.112 571.401 119.842C573.062 119.302 574.168 117.683 574.168 115.794C574.168 115.254 574.169 114.714 573.892 114.175C573.338 113.095 572.508 112.285 571.401 111.746C570.848 111.746 570.295 111.476 569.741 111.476C567.804 111.476 566.42 112.555 565.59 114.175C565.59 114.714 565.313 115.254 565.313 115.794C565.313 118.223 567.251 120.112 569.741 120.112Z" fill="#CACACA"/>
<path d="M569.741 149.258C569.741 149.258 570.848 149.258 571.401 148.988C573.062 148.448 574.168 146.829 574.168 144.94C574.168 143.051 573.062 141.702 571.401 140.892C570.848 140.892 570.295 140.622 569.741 140.622C567.251 140.622 565.313 142.511 565.313 144.94C565.313 147.369 567.251 149.258 569.741 149.258Z" fill="#CACACA"/>
<path d="M599.351 236.162C601.842 236.162 603.779 234.272 603.779 231.843C603.779 229.414 601.842 227.525 599.351 227.525C596.861 227.525 594.924 229.414 594.924 231.843C594.924 234.272 596.861 236.162 599.351 236.162Z" fill="#CACACA"/>
<path d="M599.351 265.306C601.842 265.306 603.779 263.417 603.779 260.988C603.779 258.559 601.842 256.67 599.351 256.67C596.861 256.67 594.924 258.559 594.924 260.988C594.924 263.417 596.861 265.306 599.351 265.306Z" fill="#CACACA"/>
<path d="M614.289 250.734C616.734 250.734 618.716 248.8 618.716 246.416C618.716 244.031 616.734 242.098 614.289 242.098C611.844 242.098 609.861 244.031 609.861 246.416C609.861 248.8 611.844 250.734 614.289 250.734Z" fill="#CACACA"/>
<path d="M584.409 250.734C586.9 250.734 588.836 248.845 588.836 246.416C588.836 243.987 586.9 242.098 584.409 242.098C581.919 242.098 579.981 243.987 579.981 246.416C579.981 248.845 581.919 250.734 584.409 250.734Z" fill="#CACACA"/>
<path d="M629.23 236.162C629.23 236.162 630.337 236.161 630.891 235.892C632.551 235.352 633.658 233.733 633.658 231.843C633.658 229.954 632.551 228.605 630.891 227.795C630.337 227.795 629.784 227.525 629.23 227.525C626.74 227.525 624.803 229.414 624.803 231.843C624.803 234.272 626.74 236.162 629.23 236.162Z" fill="#CACACA"/>
<path d="M629.23 265.306C629.23 265.306 630.337 265.306 630.891 265.036C632.551 264.496 633.658 262.877 633.658 260.988C633.658 259.099 632.551 257.749 630.891 256.94C630.337 256.94 629.784 256.67 629.23 256.67C626.74 256.67 624.803 258.559 624.803 260.988C624.803 263.417 626.74 265.306 629.23 265.306Z" fill="#CACACA"/>
<path d="M599.351 178.136C601.842 178.136 603.779 176.247 603.779 173.818C603.779 173.278 603.779 172.739 603.502 172.199C602.949 170.579 601.288 169.5 599.351 169.5C597.414 169.5 596.031 170.579 595.201 172.199C595.201 172.739 594.924 173.278 594.924 173.818C594.924 176.247 596.861 178.136 599.351 178.136Z" fill="#CACACA"/>
<path d="M599.351 207.283C601.842 207.283 603.779 205.393 603.779 202.964C603.779 200.536 601.842 198.646 599.351 198.646C596.861 198.646 594.924 200.536 594.924 202.964C594.924 205.393 596.861 207.283 599.351 207.283Z" fill="#CACACA"/>
<path d="M614.289 192.71C616.734 192.71 618.716 190.777 618.716 188.392C618.716 186.008 616.734 184.074 614.289 184.074C611.844 184.074 609.861 186.008 609.861 188.392C609.861 190.777 611.844 192.71 614.289 192.71Z" fill="#CACACA"/>
<path d="M584.409 192.71C586.9 192.71 588.836 190.821 588.836 188.392C588.836 185.963 586.9 184.074 584.409 184.074C581.919 184.074 579.981 185.963 579.981 188.392C579.981 190.821 581.919 192.71 584.409 192.71Z" fill="#CACACA"/>
<path d="M614.289 221.586C616.734 221.586 618.716 219.653 618.716 217.268C618.716 214.884 616.734 212.95 614.289 212.95C611.844 212.95 609.861 214.884 609.861 217.268C609.861 219.653 611.844 221.586 614.289 221.586Z" fill="#CACACA"/>
<path d="M584.409 221.586C586.9 221.586 588.836 219.697 588.836 217.268C588.836 214.839 586.9 212.95 584.409 212.95C581.919 212.95 579.981 214.839 579.981 217.268C579.981 219.697 581.919 221.586 584.409 221.586Z" fill="#CACACA"/>
<path d="M629.23 178.136C629.23 178.136 630.337 178.136 630.891 177.866C632.551 177.326 633.658 175.707 633.658 173.818C633.658 173.278 633.658 172.739 633.381 172.199C632.828 171.119 631.997 170.31 630.891 169.77C630.337 169.77 629.784 169.5 629.23 169.5C627.293 169.5 625.91 170.579 625.08 172.199C625.08 172.739 624.803 173.278 624.803 173.818C624.803 176.247 626.74 178.136 629.23 178.136Z" fill="#CACACA"/>
<path d="M629.23 207.283C629.23 207.283 630.337 207.283 630.891 207.013C632.551 206.473 633.658 204.854 633.658 202.964C633.658 201.075 632.551 199.726 630.891 198.916C630.337 198.916 629.784 198.646 629.23 198.646C626.74 198.646 624.803 200.536 624.803 202.964C624.803 205.393 626.74 207.283 629.23 207.283Z" fill="#CACACA"/>
<path d="M599.351 120.112C601.842 120.112 603.779 118.223 603.779 115.794C603.779 115.254 603.779 114.714 603.502 114.175C602.949 112.555 601.288 111.476 599.351 111.476C597.414 111.476 596.031 112.555 595.201 114.175C595.201 114.714 594.924 115.254 594.924 115.794C594.924 118.223 596.861 120.112 599.351 120.112Z" fill="#CACACA"/>
<path d="M599.351 149.258C601.842 149.258 603.779 147.369 603.779 144.94C603.779 142.511 601.842 140.622 599.351 140.622C596.861 140.622 594.924 142.511 594.924 144.94C594.924 147.369 596.861 149.258 599.351 149.258Z" fill="#CACACA"/>
<path d="M614.289 134.686C616.734 134.686 618.716 132.753 618.716 130.368C618.716 127.983 616.734 126.05 614.289 126.05C611.844 126.05 609.861 127.983 609.861 130.368C609.861 132.753 611.844 134.686 614.289 134.686Z" fill="#CACACA"/>
<path d="M584.409 134.686C586.9 134.686 588.836 132.797 588.836 130.368C588.836 127.939 586.9 126.05 584.409 126.05C581.919 126.05 579.981 127.939 579.981 130.368C579.981 132.797 581.919 134.686 584.409 134.686Z" fill="#CACACA"/>
<path d="M614.289 163.564C616.779 163.564 618.716 161.675 618.716 159.246C618.716 156.817 616.779 154.928 614.289 154.928C611.798 154.928 609.861 156.817 609.861 159.246C609.861 161.675 611.798 163.564 614.289 163.564Z" fill="#CACACA"/>
<path d="M584.409 163.564C586.9 163.564 588.836 161.675 588.836 159.246C588.836 156.817 586.9 154.928 584.409 154.928C581.919 154.928 579.981 156.817 579.981 159.246C579.981 161.675 581.919 163.564 584.409 163.564Z" fill="#CACACA"/>
<path d="M629.23 120.112C629.23 120.112 630.337 120.112 630.891 119.842C632.551 119.302 633.658 117.683 633.658 115.794C633.658 115.254 633.658 114.714 633.381 114.175C632.828 113.095 631.997 112.285 630.891 111.746C630.337 111.746 629.784 111.476 629.23 111.476C627.293 111.476 625.91 112.555 625.08 114.175C625.08 114.714 624.803 115.254 624.803 115.794C624.803 118.223 626.74 120.112 629.23 120.112Z" fill="#CACACA"/>
<path d="M629.23 149.258C629.23 149.258 630.337 149.258 630.891 148.988C632.551 148.448 633.658 146.829 633.658 144.94C633.658 143.051 632.551 141.702 630.891 140.892C630.337 140.892 629.784 140.622 629.23 140.622C626.74 140.622 624.803 142.511 624.803 144.94C624.803 147.369 626.74 149.258 629.23 149.258Z" fill="#CACACA"/>
<path d="M658.841 236.162C661.331 236.162 663.268 234.272 663.268 231.843C663.268 229.414 661.331 227.525 658.841 227.525C656.35 227.525 654.413 229.414 654.413 231.843C654.413 234.272 656.35 236.162 658.841 236.162Z" fill="#CACACA"/>
<path d="M658.841 265.307C661.331 265.307 663.268 263.418 663.268 260.989C663.268 258.56 661.331 256.671 658.841 256.671C656.35 256.671 654.413 258.56 654.413 260.989C654.413 263.418 656.35 265.307 658.841 265.307Z" fill="#CACACA"/>
<path d="M673.787 250.734C676.277 250.734 678.214 248.845 678.214 246.416C678.214 243.987 676.277 242.098 673.787 242.098C671.297 242.098 669.359 243.987 669.359 246.416C669.359 248.845 671.297 250.734 673.787 250.734Z" fill="#CACACA"/>
<path d="M644.177 250.734C646.668 250.734 648.605 248.845 648.605 246.416C648.605 243.987 646.668 242.098 644.177 242.098C641.687 242.098 639.75 243.987 639.75 246.416C639.75 248.845 641.687 250.734 644.177 250.734Z" fill="#CACACA"/>
<path d="M688.729 236.162C688.729 236.162 689.836 236.161 690.39 235.892C692.05 235.352 693.157 233.733 693.157 231.843C693.157 229.954 692.05 228.605 690.39 227.795C689.836 227.795 689.283 227.525 688.729 227.525C686.239 227.525 684.302 229.414 684.302 231.843C684.302 234.272 686.239 236.162 688.729 236.162Z" fill="#CACACA"/>
<path d="M688.729 265.307C688.729 265.307 689.836 265.307 690.39 265.037C692.05 264.497 693.157 262.878 693.157 260.989C693.157 259.1 692.05 257.75 690.39 256.941C689.836 256.941 689.283 256.671 688.729 256.671C686.239 256.671 684.302 258.56 684.302 260.989C684.302 263.418 686.239 265.307 688.729 265.307Z" fill="#CACACA"/>
<path d="M658.841 178.136C661.331 178.136 663.268 176.247 663.268 173.818C663.268 173.278 663.268 172.739 662.991 172.199C662.438 170.579 660.778 169.5 658.841 169.5C656.904 169.5 655.52 170.579 654.69 172.199C654.69 172.739 654.413 173.278 654.413 173.818C654.413 176.247 656.35 178.136 658.841 178.136Z" fill="#CACACA"/>
<path d="M658.841 207.284C661.331 207.284 663.268 205.394 663.268 202.965C663.268 200.537 661.331 198.647 658.841 198.647C656.35 198.647 654.413 200.537 654.413 202.965C654.413 205.394 656.35 207.284 658.841 207.284Z" fill="#CACACA"/>
<path d="M673.787 192.71C676.277 192.71 678.214 190.821 678.214 188.392C678.214 185.963 676.277 184.074 673.787 184.074C671.297 184.074 669.359 185.963 669.359 188.392C669.359 190.821 671.297 192.71 673.787 192.71Z" fill="#CACACA"/>
<path d="M644.177 192.71C646.668 192.71 648.605 190.821 648.605 188.392C648.605 185.963 646.668 184.074 644.177 184.074C641.687 184.074 639.75 185.963 639.75 188.392C639.75 190.821 641.687 192.71 644.177 192.71Z" fill="#CACACA"/>
<path d="M673.787 221.586C676.277 221.586 678.214 219.697 678.214 217.268C678.214 214.839 676.277 212.95 673.787 212.95C671.297 212.95 669.359 214.839 669.359 217.268C669.359 219.697 671.297 221.586 673.787 221.586Z" fill="#CACACA"/>
<path d="M644.177 221.586C646.668 221.586 648.605 219.697 648.605 217.268C648.605 214.839 646.668 212.95 644.177 212.95C641.687 212.95 639.75 214.839 639.75 217.268C639.75 219.697 641.687 221.586 644.177 221.586Z" fill="#CACACA"/>
<path d="M688.729 178.136C688.729 178.136 689.836 178.136 690.39 177.866C692.05 177.326 693.157 175.707 693.157 173.818C693.157 173.278 693.157 172.739 692.88 172.199C692.327 171.119 691.496 170.31 690.39 169.77C689.836 169.77 689.283 169.5 688.729 169.5C686.792 169.5 685.409 170.579 684.579 172.199C684.579 172.739 684.302 173.278 684.302 173.818C684.302 176.247 686.239 178.136 688.729 178.136Z" fill="#CACACA"/>
<path d="M688.729 207.284C688.729 207.284 689.836 207.284 690.39 207.014C692.05 206.474 693.157 204.855 693.157 202.965C693.157 201.076 692.05 199.727 690.39 198.917C689.836 198.917 689.283 198.647 688.729 198.647C686.239 198.647 684.302 200.537 684.302 202.965C684.302 205.394 686.239 207.284 688.729 207.284Z" fill="#CACACA"/>
<path d="M658.841 120.112C661.331 120.112 663.268 118.223 663.268 115.794C663.268 115.254 663.268 114.714 662.991 114.175C662.438 112.555 660.778 111.476 658.841 111.476C656.904 111.476 655.52 112.555 654.69 114.175C654.69 114.714 654.413 115.254 654.413 115.794C654.413 118.223 656.35 120.112 658.841 120.112Z" fill="#CACACA"/>
<path d="M658.841 149.258C661.331 149.258 663.268 147.369 663.268 144.94C663.268 142.511 661.331 140.622 658.841 140.622C656.35 140.622 654.413 142.511 654.413 144.94C654.413 147.369 656.35 149.258 658.841 149.258Z" fill="#CACACA"/>
<path d="M673.787 134.686C676.277 134.686 678.214 132.797 678.214 130.368C678.214 127.939 676.277 126.05 673.787 126.05C671.297 126.05 669.359 127.939 669.359 130.368C669.359 132.797 671.297 134.686 673.787 134.686Z" fill="#CACACA"/>
<path d="M644.177 134.686C646.668 134.686 648.605 132.797 648.605 130.368C648.605 127.939 646.668 126.05 644.177 126.05C641.687 126.05 639.75 127.939 639.75 130.368C639.75 132.797 641.687 134.686 644.177 134.686Z" fill="#CACACA"/>
<path d="M673.787 163.564C676.277 163.564 678.214 161.675 678.214 159.246C678.214 156.817 676.277 154.928 673.787 154.928C671.297 154.928 669.359 156.817 669.359 159.246C669.359 161.675 671.297 163.564 673.787 163.564Z" fill="#CACACA"/>
<path d="M644.177 163.564C646.668 163.564 648.605 161.675 648.605 159.246C648.605 156.817 646.668 154.928 644.177 154.928C641.687 154.928 639.75 156.817 639.75 159.246C639.75 161.675 641.687 163.564 644.177 163.564Z" fill="#CACACA"/>
<path d="M688.729 120.112C688.729 120.112 689.836 120.112 690.39 119.842C692.05 119.302 693.157 117.683 693.157 115.794C693.157 115.254 693.157 114.714 692.88 114.175C692.327 113.095 691.496 112.285 690.39 111.746C689.836 111.746 689.283 111.476 688.729 111.476C686.792 111.476 685.409 112.555 684.579 114.175C684.579 114.714 684.302 115.254 684.302 115.794C684.302 118.223 686.239 120.112 688.729 120.112Z" fill="#CACACA"/>
<path d="M688.729 149.258C688.729 149.258 689.836 149.258 690.39 148.988C692.05 148.448 693.157 146.829 693.157 144.94C693.157 143.051 692.05 141.702 690.39 140.892C689.836 140.892 689.283 140.622 688.729 140.622C686.239 140.622 684.302 142.511 684.302 144.94C684.302 147.369 686.239 149.258 688.729 149.258Z" fill="#CACACA"/>
<path d="M718.335 236.162C720.825 236.162 722.762 234.272 722.762 231.843C722.762 229.414 720.825 227.525 718.335 227.525C715.844 227.525 713.907 229.414 713.907 231.843C713.907 234.272 715.844 236.162 718.335 236.162Z" fill="#CACACA"/>
<path d="M718.335 265.307C720.825 265.307 722.762 263.418 722.762 260.989C722.762 258.56 720.825 256.671 718.335 256.671C715.844 256.671 713.907 258.56 713.907 260.989C713.907 263.418 715.844 265.307 718.335 265.307Z" fill="#CACACA"/>
<path d="M733.277 250.734C735.722 250.734 737.704 248.8 737.704 246.416C737.704 244.031 735.722 242.098 733.277 242.098C730.831 242.098 728.849 244.031 728.849 246.416C728.849 248.8 730.831 250.734 733.277 250.734Z" fill="#CACACA"/>
<path d="M703.676 250.734C706.166 250.734 708.104 248.845 708.104 246.416C708.104 243.987 706.166 242.098 703.676 242.098C701.185 242.098 699.249 243.987 699.249 246.416C699.249 248.845 701.185 250.734 703.676 250.734Z" fill="#CACACA"/>
<path d="M748.223 236.162C750.714 236.162 752.651 234.272 752.651 231.843C752.651 229.414 750.714 227.525 748.223 227.525C745.733 227.525 743.796 229.414 743.796 231.843C743.796 234.272 745.733 236.162 748.223 236.162Z" fill="#CACACA"/>
<path d="M748.223 265.307C750.714 265.307 752.651 263.418 752.651 260.989C752.651 258.56 750.714 256.671 748.223 256.671C745.733 256.671 743.796 258.56 743.796 260.989C743.796 263.418 745.733 265.307 748.223 265.307Z" fill="#CACACA"/>
<path d="M718.335 178.136C720.825 178.136 722.762 176.247 722.762 173.818C722.762 173.278 722.762 172.739 722.485 172.199C721.932 170.579 720.272 169.5 718.335 169.5C716.398 169.5 715.014 170.579 714.184 172.199C714.184 172.739 713.907 173.278 713.907 173.818C713.907 176.247 715.844 178.136 718.335 178.136Z" fill="#CACACA"/>
<path d="M718.335 207.284C720.825 207.284 722.762 205.394 722.762 202.965C722.762 200.537 720.825 198.647 718.335 198.647C715.844 198.647 713.907 200.537 713.907 202.965C713.907 205.394 715.844 207.284 718.335 207.284Z" fill="#CACACA"/>
<path d="M733.277 192.71C735.722 192.71 737.704 190.777 737.704 188.392C737.704 186.008 735.722 184.074 733.277 184.074C730.831 184.074 728.849 186.008 728.849 188.392C728.849 190.777 730.831 192.71 733.277 192.71Z" fill="#CACACA"/>
<path d="M703.676 192.71C706.166 192.71 708.104 190.821 708.104 188.392C708.104 185.963 706.166 184.074 703.676 184.074C701.185 184.074 699.249 185.963 699.249 188.392C699.249 190.821 701.185 192.71 703.676 192.71Z" fill="#CACACA"/>
<path d="M733.277 221.586C735.722 221.586 737.704 219.653 737.704 217.268C737.704 214.884 735.722 212.95 733.277 212.95C730.831 212.95 728.849 214.884 728.849 217.268C728.849 219.653 730.831 221.586 733.277 221.586Z" fill="#CACACA"/>
<path d="M703.676 221.586C706.166 221.586 708.104 219.697 708.104 217.268C708.104 214.839 706.166 212.95 703.676 212.95C701.185 212.95 699.249 214.839 699.249 217.268C699.249 219.697 701.185 221.586 703.676 221.586Z" fill="#CACACA"/>
<path d="M748.223 178.136C750.714 178.136 752.651 176.247 752.651 173.818C752.651 173.278 752.651 172.739 752.374 172.199C751.821 170.579 750.16 169.5 748.223 169.5C746.286 169.5 744.903 170.579 744.072 172.199C744.072 172.739 743.796 173.278 743.796 173.818C743.796 176.247 745.733 178.136 748.223 178.136Z" fill="#CACACA"/>
<path d="M748.223 207.284C750.714 207.284 752.651 205.394 752.651 202.965C752.651 200.537 750.714 198.647 748.223 198.647C745.733 198.647 743.796 200.537 743.796 202.965C743.796 205.394 745.733 207.284 748.223 207.284Z" fill="#CACACA"/>
<path d="M718.335 120.112C720.825 120.112 722.762 118.223 722.762 115.794C722.762 115.254 722.762 114.714 722.485 114.175C721.932 112.555 720.272 111.476 718.335 111.476C716.398 111.476 715.014 112.555 714.184 114.175C714.184 114.714 713.907 115.254 713.907 115.794C713.907 118.223 715.844 120.112 718.335 120.112Z" fill="#CACACA"/>
<path d="M718.335 149.258C720.825 149.258 722.762 147.369 722.762 144.94C722.762 142.511 720.825 140.622 718.335 140.622C715.844 140.622 713.907 142.511 713.907 144.94C713.907 147.369 715.844 149.258 718.335 149.258Z" fill="#CACACA"/>
<path d="M733.277 134.686C735.722 134.686 737.704 132.753 737.704 130.368C737.704 127.983 735.722 126.05 733.277 126.05C730.831 126.05 728.849 127.983 728.849 130.368C728.849 132.753 730.831 134.686 733.277 134.686Z" fill="#CACACA"/>
<path d="M703.676 134.686C706.166 134.686 708.104 132.797 708.104 130.368C708.104 127.939 706.166 126.05 703.676 126.05C701.185 126.05 699.249 127.939 699.249 130.368C699.249 132.797 701.185 134.686 703.676 134.686Z" fill="#CACACA"/>
<path d="M733.277 163.564C735.767 163.564 737.704 161.675 737.704 159.246C737.704 156.817 735.767 154.928 733.277 154.928C730.786 154.928 728.849 156.817 728.849 159.246C728.849 161.675 730.786 163.564 733.277 163.564Z" fill="#CACACA"/>
<path d="M703.676 163.564C706.166 163.564 708.104 161.675 708.104 159.246C708.104 156.817 706.166 154.928 703.676 154.928C701.185 154.928 699.249 156.817 699.249 159.246C699.249 161.675 701.185 163.564 703.676 163.564Z" fill="#CACACA"/>
<path d="M748.223 120.112C750.714 120.112 752.651 118.223 752.651 115.794C752.651 115.254 752.651 114.714 752.374 114.175C751.821 112.555 750.16 111.476 748.223 111.476C746.286 111.476 744.903 112.555 744.072 114.175C744.072 114.714 743.796 115.254 743.796 115.794C743.796 118.223 745.733 120.112 748.223 120.112Z" fill="#CACACA"/>
<path d="M748.223 149.258C750.714 149.258 752.651 147.369 752.651 144.94C752.651 142.511 750.714 140.622 748.223 140.622C745.733 140.622 743.796 142.511 743.796 144.94C743.796 147.369 745.733 149.258 748.223 149.258Z" fill="#CACACA"/>
<path d="M777.833 236.162C780.324 236.162 782.261 234.272 782.261 231.843C782.261 229.414 780.324 227.525 777.833 227.525C775.343 227.525 773.406 229.414 773.406 231.843C773.406 234.272 775.343 236.162 777.833 236.162Z" fill="#CACACA"/>
<path d="M777.833 265.307C780.324 265.307 782.261 263.418 782.261 260.989C782.261 258.56 780.324 256.671 777.833 256.671C775.343 256.671 773.406 258.56 773.406 260.989C773.406 263.418 775.343 265.307 777.833 265.307Z" fill="#CACACA"/>
<path d="M792.775 250.734C795.266 250.734 797.203 248.845 797.203 246.416C797.203 243.987 795.266 242.098 792.775 242.098C790.285 242.098 788.348 243.987 788.348 246.416C788.348 248.845 790.285 250.734 792.775 250.734Z" fill="#CACACA"/>
<path d="M763.166 250.734C765.656 250.734 767.593 248.845 767.593 246.416C767.593 243.987 765.656 242.098 763.166 242.098C760.675 242.098 758.738 243.987 758.738 246.416C758.738 248.845 760.675 250.734 763.166 250.734Z" fill="#CACACA"/>
<path d="M807.713 236.162C810.204 236.162 812.141 234.272 812.141 231.843C812.141 229.414 810.204 227.525 807.713 227.525C805.223 227.525 803.286 229.414 803.286 231.843C803.286 234.272 805.223 236.162 807.713 236.162Z" fill="#CACACA"/>
<path d="M807.713 265.307C810.204 265.307 812.141 263.418 812.141 260.989C812.141 258.56 810.204 256.671 807.713 256.671C805.223 256.671 803.286 258.56 803.286 260.989C803.286 263.418 805.223 265.307 807.713 265.307Z" fill="#CACACA"/>
<path d="M777.833 178.136C780.324 178.136 782.261 176.247 782.261 173.818C782.261 173.278 782.261 172.739 781.984 172.199C781.431 170.579 779.77 169.5 777.833 169.5C775.896 169.5 774.512 170.579 773.682 172.199C773.682 172.739 773.406 173.278 773.406 173.818C773.406 176.247 775.343 178.136 777.833 178.136Z" fill="#CACACA"/>
<path d="M777.833 207.284C780.324 207.284 782.261 205.394 782.261 202.965C782.261 200.537 780.324 198.647 777.833 198.647C775.343 198.647 773.406 200.537 773.406 202.965C773.406 205.394 775.343 207.284 777.833 207.284Z" fill="#CACACA"/>
<path d="M792.775 192.71C795.266 192.71 797.203 190.821 797.203 188.392C797.203 185.963 795.266 184.074 792.775 184.074C790.285 184.074 788.348 185.963 788.348 188.392C788.348 190.821 790.285 192.71 792.775 192.71Z" fill="#CACACA"/>
<path d="M763.166 192.71C765.656 192.71 767.593 190.821 767.593 188.392C767.593 185.963 765.656 184.074 763.166 184.074C760.675 184.074 758.738 185.963 758.738 188.392C758.738 190.821 760.675 192.71 763.166 192.71Z" fill="#CACACA"/>
<path d="M792.775 221.586C795.266 221.586 797.203 219.697 797.203 217.268C797.203 214.839 795.266 212.95 792.775 212.95C790.285 212.95 788.348 214.839 788.348 217.268C788.348 219.697 790.285 221.586 792.775 221.586Z" fill="#CACACA"/>
<path d="M763.166 221.586C765.656 221.586 767.593 219.697 767.593 217.268C767.593 214.839 765.656 212.95 763.166 212.95C760.675 212.95 758.738 214.839 758.738 217.268C758.738 219.697 760.675 221.586 763.166 221.586Z" fill="#CACACA"/>
<path d="M807.713 178.136C810.204 178.136 812.141 176.247 812.141 173.818C812.141 173.278 812.141 172.739 811.864 172.199C811.311 170.579 809.65 169.5 807.713 169.5C805.776 169.5 804.393 170.579 803.562 172.199C803.562 172.739 803.286 173.278 803.286 173.818C803.286 176.247 805.223 178.136 807.713 178.136Z" fill="#CACACA"/>
<path d="M807.713 207.284C810.204 207.284 812.141 205.394 812.141 202.965C812.141 200.537 810.204 198.647 807.713 198.647C805.223 198.647 803.286 200.537 803.286 202.965C803.286 205.394 805.223 207.284 807.713 207.284Z" fill="#CACACA"/>
<path d="M777.833 120.112C780.324 120.112 782.261 118.223 782.261 115.794C782.261 115.254 782.261 114.714 781.984 114.175C781.431 112.555 779.77 111.476 777.833 111.476C775.896 111.476 774.512 112.555 773.682 114.175C773.682 114.714 773.406 115.254 773.406 115.794C773.406 118.223 775.343 120.112 777.833 120.112Z" fill="#CACACA"/>
<path d="M777.833 149.258C780.324 149.258 782.261 147.369 782.261 144.94C782.261 142.511 780.324 140.622 777.833 140.622C775.343 140.622 773.406 142.511 773.406 144.94C773.406 147.369 775.343 149.258 777.833 149.258Z" fill="#CACACA"/>
<path d="M792.775 134.686C795.266 134.686 797.203 132.797 797.203 130.368C797.203 127.939 795.266 126.05 792.775 126.05C790.285 126.05 788.348 127.939 788.348 130.368C788.348 132.797 790.285 134.686 792.775 134.686Z" fill="#CACACA"/>
<path d="M763.166 134.686C765.656 134.686 767.593 132.797 767.593 130.368C767.593 127.939 765.656 126.05 763.166 126.05C760.675 126.05 758.738 127.939 758.738 130.368C758.738 132.797 760.675 134.686 763.166 134.686Z" fill="#CACACA"/>
<path d="M792.775 163.564C795.266 163.564 797.203 161.675 797.203 159.246C797.203 156.817 795.266 154.928 792.775 154.928C790.285 154.928 788.348 156.817 788.348 159.246C788.348 161.675 790.285 163.564 792.775 163.564Z" fill="#CACACA"/>
<path d="M763.166 163.564C765.656 163.564 767.593 161.675 767.593 159.246C767.593 156.817 765.656 154.928 763.166 154.928C760.675 154.928 758.738 156.817 758.738 159.246C758.738 161.675 760.675 163.564 763.166 163.564Z" fill="#CACACA"/>
<path d="M807.713 120.112C810.204 120.112 812.141 118.223 812.141 115.794C812.141 115.254 812.141 114.714 811.864 114.175C811.311 112.555 809.65 111.476 807.713 111.476C805.776 111.476 804.393 112.555 803.562 114.175C803.562 114.714 803.286 115.254 803.286 115.794C803.286 118.223 805.223 120.112 807.713 120.112Z" fill="#CACACA"/>
<path d="M807.713 149.258C810.204 149.258 812.141 147.369 812.141 144.94C812.141 142.511 810.204 140.622 807.713 140.622C805.223 140.622 803.286 142.511 803.286 144.94C803.286 147.369 805.223 149.258 807.713 149.258Z" fill="#CACACA"/>
<path d="M822.66 250.734C825.15 250.734 827.087 248.845 827.087 246.416C827.087 243.987 825.15 242.098 822.66 242.098C820.169 242.098 818.232 243.987 818.232 246.416C818.232 248.845 820.169 250.734 822.66 250.734Z" fill="#CACACA"/>
<path d="M822.66 192.71C825.15 192.71 827.087 190.821 827.087 188.392C827.087 185.963 825.15 184.074 822.66 184.074C820.169 184.074 818.232 185.963 818.232 188.392C818.232 190.821 820.169 192.71 822.66 192.71Z" fill="#CACACA"/>
<path d="M822.66 221.586C825.15 221.586 827.087 219.697 827.087 217.268C827.087 214.839 825.15 212.95 822.66 212.95C820.169 212.95 818.232 214.839 818.232 217.268C818.232 219.697 820.169 221.586 822.66 221.586Z" fill="#CACACA"/>
<path d="M822.66 134.686C825.15 134.686 827.087 132.797 827.087 130.368C827.087 127.939 825.15 126.05 822.66 126.05C820.169 126.05 818.232 127.939 818.232 130.368C818.232 132.797 820.169 134.686 822.66 134.686Z" fill="#CACACA"/>
<path d="M822.66 163.564C825.15 163.564 827.087 161.675 827.087 159.246C827.087 156.817 825.15 154.928 822.66 154.928C820.169 154.928 818.232 156.817 818.232 159.246C818.232 161.675 820.169 163.564 822.66 163.564Z" fill="#CACACA"/>
</g>
</g>
</g>
<g opacity="0.12">
<path d="M1721.51 1194L1791.46 1143.91L1721.51 1093C1713.01 1098.75 1696 1116.98 1696 1143.91C1696 1170.85 1713.01 1188.53 1721.51 1194Z" fill="#C4C4C4"/>
<path opacity="0.5" d="M1785.89 1194L1855.83 1143.91L1785.89 1093C1777.38 1098.75 1760.38 1116.98 1760.38 1143.91C1760.38 1170.85 1777.38 1188.53 1785.89 1194Z" fill="#C4C4C4"/>
<path opacity="0.3" d="M1850.26 1194L1920.21 1143.91L1850.26 1093C1841.76 1098.75 1824.75 1116.98 1824.75 1143.91C1824.75 1170.85 1841.76 1188.53 1850.26 1194Z" fill="#C4C4C4"/>
</g>
<defs>
<linearGradient id="paint0_linear_257_4197" x1="960" y1="0" x2="960" y2="1248" gradientUnits="userSpaceOnUse">
<stop/>
<stop offset="1" stop-color="#1F1F1F"/>
</linearGradient>
<clipPath id="clip0_257_4197">
<rect width="141" height="296" fill="white" transform="translate(0 842)"/>
</clipPath>
<clipPath id="clip1_257_4197">
<rect width="825" height="140" fill="white" transform="translate(0.223633 120)"/>
</clipPath>
</defs>
</svg>
